<?xml version="1.0" encoding="UTF-8"?>
<svg width="2000px" height="706px" viewBox="0 0 2000 706" version="1.1" xmlns="http://www.w3.org/2000/svg" xmlns:xlink="http://www.w3.org/1999/xlink">
    <!-- Generator: Sketch 46.2 (44496) - http://www.bohemiancoding.com/sketch -->
    <title>alipay</title>
    <desc>Created with Sketch.</desc>
    <defs></defs>
    <g id="Page-1" stroke="none" stroke-width="1" fill="none" fill-rule="evenodd">
        <g id="alipay" fill-rule="nonzero">
            <path d="M172.783088,383.441176 C155.093382,385.190441 121.891912,393.005147 103.735294,409.010294 C49.3058824,456.311765 81.8727941,542.828676 192.001471,542.828676 C256.008088,542.828676 319.988235,502.006618 370.231618,436.678676 C298.774265,401.896324 238.202206,377.000735 172.783088,383.441912 L172.783088,383.441176 Z" id="Shape" fill="#1296DB"></path>
            <path d="M583.567647,443.222059 C685.505882,477.266176 708.625,479.094118 708.625,479.094118 L708.625,113.083824 C708.625,50.6198529 657.915441,0.000735294118 595.269853,0.000735294118 L114.128676,0.000735294118 C51.4705882,0.000735294118 0.734558824,50.6205882 0.734558824,113.083824 L0.734558824,592.813235 C0.734558824,655.251471 51.4705882,705.883088 114.128676,705.883088 L595.269853,705.883088 C657.915441,705.883088 708.625,655.263971 708.625,592.813235 L708.625,588.186765 C708.625,588.186765 524.498529,511.648529 431.515441,467.068382 C369.168382,543.554412 288.716176,590.000735 205.206618,590.000735 C63.9625,590.000735 16.0007353,466.757353 82.8705882,385.619118 C97.4625,367.955882 122.266912,351.056618 160.769118,341.583824 C220.977941,326.836029 316.838971,350.798529 406.659559,380.358088 C422.806618,350.668382 436.400735,317.997794 446.536029,283.188971 L169.698529,283.188971 L169.698529,255.222794 L312.433088,255.222794 L312.433088,205.109559 L139.555147,205.109559 L139.555147,177.130147 L312.433088,177.130147 L312.433088,105.633088 C312.433088,105.633088 312.433088,93.5808824 324.680147,93.5808824 L394.440441,93.5808824 L394.440441,177.130147 L565.374265,177.130147 L565.374265,205.109559 L394.440441,205.109559 L394.440441,255.222794 L533.973529,255.222794 C520.625,309.755882 500.330882,359.960294 474.891912,404.035294 C517.230147,419.301471 555.252941,433.776471 583.569118,443.224265 L583.567647,443.222059 Z" id="Shape" fill="#1296DB"></path>
            <path d="M1716.21397,110.660294 L1918.85956,110.660294 L1918.85956,150.769118 L1991.22426,150.769118 L1991.22426,103.247794 C1991.19779,103.131618 1991.19779,103.091912 1991.19779,102.9625 C1991.19779,92.2838235 1982.82574,83.6404412 1972.45882,83.4580882 L1855.33235,83.4580882 L1855.33235,46.0573529 L1779.59853,46.0573529 L1779.59853,83.4580882 L1643.84926,83.4580882 L1643.84926,150.769118 L1716.21397,150.769118 L1716.21397,110.660294 Z" id="Shape" fill="#3F3A37"></path>
            <polygon id="Shape" fill="#3F3A37" points="1277.8 49.5176471 1203.59485 225.000735 1260.5125 225.000735 1260.5125 433.827206 1322.75662 433.827206 1322.75662 156.834559 1300.21985 156.834559 1347.10662 49.5183824"></polygon>
            <path d="M1999.53162,424.236765 L1976.78824,347.439706 C1975.29779,342.541176 1970.83971,338.990441 1965.57794,338.977206 L1905.32941,338.977206 L1922.78529,397.967647 L1851.94926,397.967647 L1851.94926,283.718382 L1991.06838,283.718382 L1991.06838,256.503676 L1851.94926,256.503676 L1851.94926,202.735294 L1991.06838,202.735294 L1991.06838,175.533088 L1643.84853,175.533088 L1643.84853,202.735294 L1782.95441,202.735294 L1782.95441,256.503676 L1643.84853,256.503676 L1643.84853,283.718382 L1782.95441,283.718382 L1782.95441,397.967647 L1643.84853,397.967647 L1643.84853,425.182353 L1999.53015,425.182353 L1999.24485,424.249265 L1999.53015,424.249265 L1999.53162,424.236765 Z" id="Shape" fill="#3F3A37"></path>
            <path d="M1436.97941,193.366176 C1434.60809,188.545588 1429.77353,185.214706 1424.17574,185.176471 L1370.29118,185.176471 L1412.25294,317.361765 L1476.0125,317.361765 L1436.97868,193.366912 L1436.97941,193.366176 Z" id="Shape" fill="#3F3A37"></path>
            <path d="M1573.38971,52.7051471 L1508.69706,52.7051471 L1508.69706,120.300735 L1349.25809,120.300735 L1349.25809,147.502941 L1508.69706,147.502941 L1508.69706,390.503676 C1508.14044,396.05 1503.75956,400.404412 1498.25147,400.689706 L1465.38676,400.689706 L1465.38676,428.850735 L1549.22059,428.850735 C1562.47794,428.293382 1573.10441,417.277941 1573.38971,403.644853 L1573.38971,147.503676 L1599.65809,147.503676 L1599.65809,120.301471 L1573.38971,120.301471 L1573.38971,52.7058824 L1573.38971,52.7051471 Z" id="Shape" fill="#3F3A37"></path>
            <path d="M1169.74485,175.845588 L1045.47794,175.845588 L1045.47794,131.316912 L1189.56029,131.316912 L1189.56029,103.583824 L1045.47794,103.583824 L1045.47794,47.1588235 L981.238235,47.1720588 C974.201471,47.1720588 968.5125,53.0558824 968.5125,60.3382353 L968.5125,103.583824 L825.441176,103.583824 L825.441176,131.316912 L968.5125,131.316912 L968.5125,175.845588 L847.757353,175.845588 L847.757353,203.566176 L1088.28235,203.566176 C1088.28235,203.566176 1074.96029,255.597794 1008.98456,311.530147 C949.877206,266.781618 930.113971,231.143382 930.113971,231.143382 L865.588971,231.143382 C891.689706,276.384559 928.791912,312.619118 968.732353,341.3625 C932.044118,365.207353 884.458088,388.197794 822.927206,406.573529 L822.927206,439.788235 C822.927206,439.788235 917.854412,421.878676 1009.59412,367.825 C1101.47574,421.450735 1193.75882,439.788235 1193.75882,439.788235 L1193.75882,408.348529 C1134.70294,386.848529 1087.90662,363.211029 1051.15368,340.389706 C1104.40368,300.980147 1151.04412,247.445588 1169.74485,175.844853 L1169.74485,175.845588 Z" id="Shape" fill="#3F3A37"></path>
            <path d="M965.803676,619.300735 L976.547059,651.738235 L1006.66397,651.738235 L947.349265,490.680147 L924.320588,490.680147 L865.225735,651.738235 L895.355882,651.738235 L906.566176,619.300735 L965.802941,619.300735 L965.803676,619.300735 Z M936.671324,532.188235 L958.948529,598.980882 L913.590441,598.980882 L936.670588,532.188235 L936.671324,532.188235 Z" id="Shape" fill="#3F3A37"></path>
            <polygon id="Shape" fill="#3F3A37" points="1101.69559 490.679412 1101.69559 651.7375 1199.20147 651.7375 1199.20147 629.810294 1130.65956 629.810294 1130.65956 490.679412"></polygon>
            <polygon id="Shape" fill="#3F3A37" points="1305.46765 490.679412 1334.45809 490.679412 1334.45809 651.725735 1305.46765 651.725735"></polygon>
            <path d="M1514.48971,490.679412 L1451.89632,490.679412 L1451.89632,651.7375 L1480.86029,651.7375 L1480.86029,589.830882 L1514.48971,589.830882 C1545.72132,589.830882 1567.54559,569.445588 1567.54559,540.261029 C1567.54559,511.076471 1545.72206,490.677941 1514.48971,490.677941 L1514.48971,490.679412 Z M1512.86985,567.697059 L1480.86029,567.697059 L1480.86029,512.594118 L1512.86985,512.594118 C1528.93971,512.594118 1538.54191,526.655147 1538.54191,540.261765 C1538.54191,553.557353 1529.54779,567.697059 1512.86985,567.697059 Z" id="Shape" fill="#3F3A37"></path>
            <path d="M1737.6625,619.300735 L1748.40588,651.738235 L1778.52279,651.738235 L1719.19485,490.680147 L1696.17941,490.680147 L1637.08456,651.738235 L1667.22794,651.738235 L1678.41176,619.300735 L1737.66176,619.300735 L1737.6625,619.300735 Z M1708.52941,532.188235 L1730.80662,598.980882 L1685.44853,598.980882 L1708.52868,532.188235 L1708.52941,532.188235 Z" id="Shape" fill="#3F3A37"></path>
            <polygon id="Shape" fill="#3F3A37" points="1939.89265 490.679412 1908.28529 559.298529 1876.21103 490.679412 1844.90147 490.679412 1893.66765 585.580882 1893.66765 651.738235 1922.42426 651.738235 1922.42426 585.580882 1922.60588 585.218382 1971.20368 490.680147"></polygon>
        </g>
    </g>
</svg>