<?xml version="1.0" encoding="UTF-8"?>
<svg width="1999px" height="490px" viewBox="0 0 1999 490" version="1.1" xmlns="http://www.w3.org/2000/svg" xmlns:xlink="http://www.w3.org/1999/xlink">
    <!-- Generator: Sketch 46.2 (44496) - http://www.bohemiancoding.com/sketch -->
    <title>chinapay</title>
    <desc>Created with Sketch.</desc>
    <defs></defs>
    <g id="Page-1" stroke="none" stroke-width="1" fill="none" fill-rule="evenodd">
        <g id="chinapay" transform="translate(0.000000, -2.000000)" fill-rule="nonzero">
            <path d="M1374.04082,52.726101 C1381.74006,67.0247046 1379.54028,65.924812 1388.33942,67.0247046 L1410.33727,67.0247046 C1404.83781,59.3254565 1400.43824,45.0268528 1397.13856,38.4274973 C1396.03867,35.1278195 1391.6391,34.027927 1388.33942,34.027927 L1365.24168,34.027927 L1374.04082,52.726101" id="Shape" fill="#082F67"></path>
            <path d="M154.259936,2.13104189 L348.940924,2.13104189 C369.838883,1.0311493 387.437164,18.6294307 388.537057,39.5273899 C388.537057,43.9269603 388.537057,48.3265306 387.437164,52.726101 L296.146079,443.18797 C288.446831,471.785177 263.149302,491.583244 235.651987,491.583244 L39.8711063,491.583244 C18.9731472,492.683136 1.37486574,477.28464 0.274973147,454.186896 C0.274973147,449.787325 0.274973147,445.387755 1.37486574,440.988185 L92.6659506,50.5263158 C100.365199,24.1288937 125.662728,3.23093448 154.259936,2.13104189" id="Shape" fill="#ED171F"></path>
            <path d="M334.64232,2.13104189 L559.020408,2.13104189 C585.41783,2.13104189 573.319012,24.1288937 567.819549,52.726101 L476.528464,443.18797 C471.029001,469.585392 472.128894,491.583244 443.531686,491.583244 L219.153598,491.583244 C198.255639,492.683136 180.657358,477.28464 179.557465,454.186896 C179.557465,449.787325 179.557465,445.387755 180.657358,440.988185 L271.948443,50.5263158 C279.647691,24.1288937 304.94522,3.23093448 334.64232,2.13104189" id="Shape" fill="#082F67"></path>
            <path d="M550.221267,2.13104189 L744.902256,2.13104189 C765.800215,1.0311493 783.398496,18.6294307 784.498389,39.5273899 C784.498389,43.9269603 784.498389,48.3265306 783.398496,52.726101 L693.207304,443.18797 C685.508056,471.785177 660.210526,491.583244 632.713212,491.583244 L434.732546,491.583244 C413.834586,492.683136 396.236305,477.28464 395.136412,454.186896 C395.136412,449.787325 395.136412,445.387755 396.236305,440.988185 L487.52739,50.5263158 C495.226638,24.1288937 520.524168,3.23093448 550.221267,2.13104189" id="Shape" fill="#006A65"></path>
            <path d="M517.22449,370.595059 L535.922664,370.595059 L541.422127,352.996778 L522.723953,352.996778 L517.22449,370.595059 Z M532.622986,321.099893 L527.123523,341.997852 C530.423201,340.897959 534.822771,338.698174 537.022556,337.598281 C541.422127,336.498389 545.821697,336.498389 545.821697,336.498389 L550.221267,322.199785 L532.622986,322.199785 L532.622986,321.099893 Z M541.422127,291.402793 L535.922664,312.300752 C539.222342,311.200859 543.621912,309.001074 545.821697,307.901182 C549.121375,307.901182 551.32116,306.801289 554.620838,306.801289 L559.020408,292.502685 L541.422127,292.502685 L541.422127,291.402793 Z M581.01826,291.402793 L557.920516,369.495166 L563.419979,369.495166 L559.020408,385.993555 L553.520945,385.993555 L552.421053,390.393126 L530.423201,390.393126 L531.523093,385.993555 L485.327605,385.993555 L489.727175,371.694952 L494.126745,371.694952 L517.22449,291.402793 L521.62406,274.904404 L545.821697,274.904404 L542.522019,282.603652 C545.821697,279.303974 550.221267,278.204082 554.620838,277.104189 C560.120301,276.004296 594.216971,276.004296 594.216971,276.004296 L589.817401,292.502685 L581.01826,292.502685 L581.01826,291.402793 Z" id="Shape" fill="#FFFFFF"></path>
            <path d="M590.917293,276.004296 L616.214823,276.004296 L616.214823,284.803437 C616.214823,285.90333 617.314715,288.103115 620.614393,288.103115 L625.013963,288.103115 L620.614393,302.401719 L607.415682,302.401719 C595.316864,303.501611 590.917293,298.002148 590.917293,292.502685 L590.917293,276.004296 Z M594.216971,346.397422 L570.019334,346.397422 L574.418904,333.198711 L600.816327,333.198711 L605.215897,321.099893 L578.818475,321.099893 L583.218045,306.801289 L656.910849,306.801289 L652.511278,321.099893 L627.213749,321.099893 L622.814178,333.198711 L648.111708,333.198711 L643.712137,346.397422 L617.314715,346.397422 L612.915145,351.896885 L622.814178,351.896885 L626.113856,369.495166 C626.113856,370.595059 626.113856,372.794844 627.213749,372.794844 C628.313641,372.794844 631.613319,373.894737 632.713212,373.894737 L636.012889,373.894737 L630.513426,390.393126 L616.214823,390.393126 C615.11493,390.393126 611.815252,389.293233 610.71536,387.093448 C607.415682,385.993555 606.315789,383.79377 606.315789,381.593985 L605.215897,365.095596 L593.117078,381.593985 C588.717508,387.093448 583.218045,390.393126 575.518797,390.393126 L559.020408,390.393126 L563.419979,376.094522 L568.919441,376.094522 C570.019334,376.094522 572.219119,376.094522 573.319012,374.994629 C574.418904,374.994629 576.61869,373.894737 577.718582,371.694952 L594.216971,346.397422 L594.216971,346.397422 Z M336.842105,309.001074 L398.43609,309.001074 L394.03652,323.299678 L369.838883,323.299678 L365.439313,336.498389 L390.736842,336.498389 L386.337272,350.796992 L361.039742,350.796992 L355.540279,371.694952 C355.540279,374.994629 361.039742,374.994629 364.33942,374.994629 L377.538131,373.894737 L373.138561,391.493018 L344.541353,391.493018 C343.441461,391.493018 340.141783,391.493018 339.04189,390.393126 C337.941998,390.393126 335.742213,389.293233 334.64232,387.093448 C333.542427,385.993555 331.342642,382.693878 333.542427,379.3942 L342.341568,352.996778 L328.042965,352.996778 L332.442535,338.698174 L346.741139,338.698174 L351.140709,325.499463 L336.842105,325.499463 L336.842105,309.001074 Z M378.638024,282.603652 L403.935553,282.603652 L399.535983,296.902256 L365.439313,296.902256 L361.039742,300.201933 C359.93985,301.301826 357.740064,301.301826 356.640172,301.301826 C353.340494,305.701396 348.940924,305.701396 346.741139,305.701396 L334.64232,305.701396 L339.04189,291.402793 L347.841031,291.402793 L352.240602,287.003222 L357.740064,274.904404 L383.037594,274.904404 L378.638024,282.603652 L378.638024,282.603652 Z M429.233083,309.001074 C434.732546,304.601504 441.331901,301.301826 447.931257,300.201933 L466.629431,300.201933 L469.929108,291.402793 L434.732546,291.402793 L429.233083,309.001074 Z M461.129968,315.60043 L425.933405,315.60043 L422.633727,323.299678 L457.83029,323.299678 L461.129968,315.60043 Z M414.934479,276.004296 L436.932331,276.004296 L433.632653,285.90333 C436.932331,282.603652 441.331901,280.403867 445.731472,278.204082 C450.131042,277.104189 455.630505,274.904404 462.22986,274.904404 L496.326531,274.904404 L484.227712,314.500537 C483.12782,318.900107 480.928034,323.299678 478.728249,327.699248 C477.628357,330.998926 475.428571,332.098818 473.228786,333.198711 C469.929108,334.298604 467.729323,336.498389 465.529538,336.498389 L421.533835,336.498389 L411.634801,367.295381 L411.634801,372.794844 C412.734694,373.894737 412.734694,373.894737 414.934479,373.894737 L429.233083,372.794844 L423.73362,389.293233 L395.136412,389.293233 C391.836735,389.293233 390.736842,389.293233 387.437164,388.19334 L383.037594,383.79377 C383.037594,380.494092 384.137487,378.294307 384.137487,374.994629 L414.934479,276.004296 L414.934479,276.004296 Z" id="Shape" fill="#FFFFFF"></path>
            <path d="M478.728249,338.698174 L477.628357,348.597207 C477.628357,351.896885 476.528464,354.09667 473.228786,356.296455 C469.929108,359.596133 465.529538,360.696026 461.129968,360.696026 L449.031149,360.696026 L449.031149,370.595059 C449.031149,373.894737 449.031149,373.894737 450.131042,373.894737 L451.230934,374.994629 L465.529538,374.994629 L461.129968,389.293233 L447.931257,389.293233 C442.431794,389.293233 435.832438,389.293233 429.233083,388.19334 C428.13319,387.093448 425.933405,383.79377 425.933405,382.693878 L427.033298,339.798067 L447.931257,339.798067 L447.931257,348.597207 L455.630505,348.597207 C455.630505,348.597207 456.730397,347.497315 456.730397,345.29753 L457.83029,337.598281 L478.728249,337.598281 L478.728249,338.698174 Z M177.35768,127.518797 C177.35768,130.818475 163.059076,193.512352 163.059076,193.512352 C161.959184,203.411386 157.559613,214.410311 150.960258,222.10956 C146.560687,225.409237 142.161117,227.609023 136.661654,226.50913 C128.962406,227.609023 123.462943,222.10956 122.36305,214.410311 L122.36305,210.010741 L125.662728,192.41246 C125.662728,192.41246 139.961332,135.218045 142.161117,127.518797 L142.161117,126.418904 C132.262084,127.518797 120.163265,127.518797 109.164339,126.418904 L108.064447,130.818475 L93.7658432,194.612245 L92.6659506,200.111708 L89.3662728,217.709989 C89.3662728,222.10956 90.4661654,226.50913 92.6659506,230.9087 C100.365199,243.007519 117.96348,244.107411 130.062299,244.107411 C142.161117,244.107411 155.359828,240.807734 165.258861,235.308271 C177.35768,227.609023 186.156821,214.410311 188.356606,200.111708 L189.456498,194.612245 C189.456498,194.612245 203.755102,135.218045 207.05478,128.61869 L207.05478,127.518797 L177.35768,127.518797 L177.35768,127.518797 Z M258.749731,244.107411 L233.452202,244.107411 C234.552095,239.707841 234.552095,235.308271 236.75188,230.9087 L237.851772,225.409237 C238.951665,216.610097 242.251343,204.511278 242.251343,202.311493 C243.351235,199.011815 242.251343,196.81203 238.951665,196.81203 L237.851772,196.81203 C234.552095,196.81203 233.452202,197.911923 230.152524,200.111708 C229.052632,204.511278 225.752954,218.809882 224.653061,225.409237 C221.353383,238.607948 221.353383,239.707841 220.253491,247.407089 L219.153598,248.506982 L193.856069,248.506982 L193.856069,247.407089 C194.955961,239.707841 198.255639,230.9087 199.355532,224.309345 C202.655209,211.110634 204.854995,197.911923 207.05478,182.513426 L208.154672,182.513426 C220.253491,181.413534 222.453276,181.413534 234.552095,178.113856 L235.651987,179.213749 L234.552095,186.912997 C235.651987,185.813104 238.951665,183.613319 240.051557,183.613319 C244.451128,180.313641 249.950591,180.313641 256.549946,179.213749 C262.049409,179.213749 268.648765,182.513426 269.748657,186.912997 C270.84855,195.712137 270.84855,204.511278 268.648765,213.310419 L267.548872,221.009667 C264.249194,235.308271 263.149302,238.607948 262.049409,249.606874 L258.749731,244.107411 L258.749731,244.107411 Z M298.345865,244.107411 L271.948443,244.107411 C271.948443,240.807734 273.048335,236.408163 275.24812,234.208378 C276.348013,230.9087 276.348013,228.708915 278.547798,224.309345 C279.647691,216.610097 281.847476,211.110634 281.847476,206.711063 C281.847476,202.311493 282.947368,197.911923 282.947368,193.512352 L296.146079,192.41246 L309.344791,189.112782 C308.244898,193.512352 306.045113,197.911923 306.045113,203.411386 L304.94522,219.909774 C301.645542,229.808808 301.645542,233.108485 301.645542,236.408163 C301.645542,238.607948 301.645542,238.607948 298.345865,244.107411 Z M361.039742,210.010741 C359.93985,215.510204 357.740064,222.10956 355.540279,226.50913 C354.440387,229.808808 351.140709,230.9087 347.841031,230.9087 C344.541353,230.9087 342.341568,227.609023 342.341568,225.409237 L342.341568,224.309345 C342.341568,219.909774 342.341568,216.610097 343.441461,212.210526 C346.741139,200.111708 348.940924,191.312567 356.640172,191.312567 C363.239527,191.312567 363.239527,199.011815 361.039742,210.010741 L361.039742,210.010741 Z M387.437164,210.010741 C390.736842,201.2116 390.736842,191.312567 384.137487,183.613319 C378.638024,178.113856 369.838883,174.814178 361.039742,174.814178 C351.140709,174.814178 340.141783,178.113856 331.342642,184.713212 C323.643394,192.41246 319.243824,201.2116 318.143931,210.010741 C317.044039,218.809882 313.744361,236.408163 328.042965,243.007519 C332.442535,244.107411 337.941998,246.307197 344.541353,246.307197 C356.640172,246.307197 368.73899,241.907626 375.338346,234.208378 C381.937701,226.50913 384.137487,218.809882 387.437164,210.010741 L387.437164,210.010741 Z M642.612245,177.013963 C630.513426,180.313641 628.313641,180.313641 616.214823,181.413534 L615.11493,181.413534 L615.11493,184.713212 C614.015038,181.413534 610.71536,179.213749 606.315789,177.013963 C596.416756,175.914071 585.41783,180.313641 577.718582,186.912997 C570.019334,194.612245 565.619764,203.411386 564.519871,212.210526 C563.419979,221.009667 560.120301,237.508056 574.418904,243.007519 C578.818475,244.107411 583.218045,246.307197 587.617615,246.307197 C592.017186,246.307197 596.416756,243.007519 600.816327,240.807734 L599.716434,246.307197 L599.716434,247.407089 L626.113856,247.407089 L627.213749,246.307197 C628.313641,236.408163 630.513426,225.409237 634.912997,206.711063 C637.112782,195.712137 640.41246,186.912997 642.612245,177.013963 L642.612245,177.013963 Z M603.016112,226.50913 C599.716434,229.808808 597.516649,230.9087 593.117078,230.9087 C589.817401,230.9087 587.617615,227.609023 587.617615,225.409237 L587.617615,224.309345 C587.617615,219.909774 587.617615,216.610097 588.717508,212.210526 C592.017186,200.111708 594.216971,191.312567 601.916219,191.312567 C606.315789,191.312567 609.615467,195.712137 609.615467,203.411386 L608.515575,208.910849 C608.515575,212.210526 607.415682,216.610097 605.215897,218.809882 C606.315789,224.309345 604.116004,225.409237 603.016112,226.50913 L603.016112,226.50913 Z M453.43072,244.107411 L428.13319,244.107411 C429.233083,239.707841 429.233083,235.308271 431.432868,230.9087 L432.53276,225.409237 C433.632653,216.610097 436.932331,204.511278 436.932331,202.311493 C438.032223,199.011815 436.932331,196.81203 433.632653,196.81203 L432.53276,196.81203 C429.233083,196.81203 428.13319,197.911923 424.833512,200.111708 C423.73362,204.511278 420.433942,218.809882 419.334049,225.409237 C416.034372,238.607948 416.034372,239.707841 414.934479,247.407089 L413.834586,248.506982 L388.537057,248.506982 L388.537057,247.407089 L394.03652,224.309345 C397.336198,211.110634 399.535983,197.911923 401.735768,182.513426 L402.835661,182.513426 C414.934479,181.413534 417.134264,181.413534 429.233083,178.113856 L430.332975,179.213749 L429.233083,186.912997 L434.732546,183.613319 C439.132116,180.313641 444.631579,180.313641 451.230934,179.213749 C456.730397,179.213749 463.329753,182.513426 464.429646,186.912997 C465.529538,195.712137 465.529538,204.511278 461.129968,213.310419 L460.030075,221.009667 C456.730397,235.308271 455.630505,238.607948 454.530612,249.606874 L453.43072,244.107411 Z M539.222342,127.518797 L497.426423,127.518797 L496.326531,131.918367 L488.627282,167.11493 L469.929108,245.207304 L499.626208,245.207304 C499.626208,241.907626 504.025779,219.909774 504.025779,219.909774 C504.025779,219.909774 508.425349,205.611171 508.425349,203.411386 C509.525242,202.311493 509.525242,202.311493 511.725027,202.311493 L512.824919,202.311493 C529.323308,203.411386 546.92159,201.2116 561.220193,192.41246 C571.119227,184.713212 577.718582,174.814178 579.918367,161.615467 C581.01826,158.315789 581.01826,153.916219 581.01826,151.716434 C581.01826,147.316864 579.918367,142.917293 576.61869,138.517723 C570.019334,127.518797 555.72073,127.518797 539.222342,127.518797 L539.222342,127.518797 Z M550.221267,164.915145 C549.121375,172.614393 544.721805,178.113856 537.022556,182.513426 C531.523093,185.813104 524.923738,185.813104 518.324382,185.813104 L512.824919,185.813104 L512.824919,184.713212 L520.524168,149.516649 L520.524168,144.017186 L523.823845,144.017186 L541.422127,145.117078 C550.221267,148.416756 552.421053,156.116004 550.221267,164.915145 L550.221267,164.915145 Z M309.344791,185.813104 C314.844253,181.413534 317.044039,175.914071 310.444683,171.514501 C302.745435,168.214823 296.146079,170.414608 289.546724,174.814178 C284.047261,179.213749 281.847476,184.713212 288.446831,189.112782 C296.146079,191.312567 302.745435,190.212675 309.344791,185.813104 L309.344791,185.813104 Z M724.004296,177.013963 C710.805585,178.113856 707.505908,178.113856 697.606874,180.313641 L696.506982,181.413534 C687.707841,200.111708 688.807734,195.712137 682.208378,211.110634 L682.208378,210.010741 L681.108485,177.013963 L680.008593,175.914071 C666.809882,179.213749 666.809882,179.213749 654.711063,180.313641 L653.611171,181.413534 L653.611171,182.513426 C654.711063,188.012889 654.711063,194.612245 656.910849,200.111708 C656.910849,205.611171 658.010741,212.210526 660.210526,217.709989 C661.310419,227.609023 661.310419,232.008593 663.510204,247.407089 C655.810956,260.6058 653.611171,265.005371 645.911923,277.104189 L640.41246,285.90333 C640.41246,287.003222 639.312567,287.003222 639.312567,287.003222 L633.813104,287.003222 L629.413534,301.301826 L643.712137,301.301826 C651.411386,302.401719 658.010741,298.002148 662.410311,292.502685 L672.309345,276.004296 L673.409237,274.904404 C676.708915,260.6058 726.204082,177.013963 724.004296,177.013963 L724.004296,177.013963 Z" id="Shape" fill="#FFFFFF"></path>
            <path d="M1853.59398,173.714286 C1861.29323,188.012889 1861.29323,188.012889 1871.19227,188.012889 L1897.58969,188.012889 C1892.09023,180.313641 1878.89151,144.017186 1875.59184,137.41783 C1872.29216,134.118153 1867.89259,133.01826 1863.49302,133.01826 L1840.39527,133.01826 C1837.0956,134.118153 1846.99463,158.315789 1853.59398,173.714286" id="Shape" fill="#082F67"></path>
            <path d="M1980.08163,35.1278195 L1949.28464,35.1278195 L1940.4855,73.6240602 L1812.89796,73.6240602 L1808.49839,91.2223416 L1936.08593,91.2223416 L1936.08593,92.3222342 L1900.88937,250.706767 C1900.88937,256.20623 1897.58969,260.6058 1896.4898,267.205156 C1892.09023,272.704619 1884.39098,276.004296 1877.79162,274.904404 L1831.59613,274.904404 L1831.59613,284.803437 C1834.89581,290.3029 1841.49517,293.602578 1849.19441,292.502685 L1904.18904,292.502685 C1914.08808,292.502685 1925.087,284.803437 1927.28679,274.904404 L1969.08271,94.5220193 L1997.67991,94.5220193 C1998.77981,90.122449 1998.77981,85.7228786 1997.67991,82.4232009 C1994.38024,78.0236305 1988.88077,76.9237379 1983.38131,76.9237379 L1974.58217,76.9237379 L1980.08163,35.1278195 L1980.08163,35.1278195 Z" id="Shape" fill="#082F67"></path>
            <path d="M1732.6058,290.3029 L1763.40279,290.3029 L1802.99893,118.719656 C1810.69817,105.520945 1820.59721,87.9226638 1832.69603,65.924812 C1837.0956,58.2255639 1845.89474,43.9269603 1846.99463,40.6272825 L1850.29431,35.1278195 L1819.49731,35.1278195 L1818.39742,38.4274973 C1805.19871,63.7250269 1787.60043,93.4221267 1776.6015,108.820623 C1760.10311,135.218045 1745.80451,150.616541 1734.80559,152.816327 L1730.40602,171.514501 L1734.80559,171.514501 C1743.60473,171.514501 1752.40387,170.414608 1760.10311,167.11493 L1732.6058,290.3029 L1732.6058,290.3029 Z M1419.13641,92.3222342 C1419.13641,89.0225564 1419.13641,86.8227712 1418.03652,83.5230934 C1414.73684,78.0236305 1410.33727,74.7239527 1404.83781,74.7239527 L1289.34909,74.7239527 C1281.64984,74.7239527 1275.05048,78.0236305 1270.65091,83.5230934 L1267.35124,84.622986 C1255.25242,97.8216971 1228.85499,127.518797 1221.15575,133.01826 L1192.55854,133.01826 L1202.45757,119.819549 C1218.95596,101.121375 1280.54995,32.9280344 1280.54995,32.9280344 L1256.35231,32.9280344 C1253.05263,32.9280344 1250.85285,34.027927 1247.55317,34.027927 C1243.1536,35.1278195 1239.85392,38.4274973 1237.65414,42.8270677 C1237.65414,42.8270677 1190.35875,98.9215897 1169.46079,120.919441 C1166.16112,124.219119 1165.06122,128.61869 1163.96133,133.01826 C1160.66165,140.717508 1165.06122,147.316864 1171.66058,150.616541 C1172.76047,151.716434 1176.06015,151.716434 1179.35983,150.616541 L1204.65736,150.616541 C1178.25994,180.313641 1165.06122,194.612245 1151.86251,207.810956 C1147.46294,212.210526 1146.36305,216.610097 1146.36305,222.10956 C1146.36305,222.10956 1147.46294,214.410311 1146.36305,221.009667 C1143.06337,233.108485 1162.86144,234.208378 1162.86144,234.208378 L1222.25564,234.208378 C1226.65521,234.208378 1232.15467,230.9087 1235.45435,228.708915 C1238.75403,225.409237 1239.85392,221.009667 1239.85392,216.610097 L1178.25994,216.610097 C1178.25994,216.610097 1265.15145,118.719656 1278.35016,104.421053 C1283.84962,95.6219119 1292.64876,91.2223416 1303.64769,90.122449 L1419.13641,92.3222342 L1419.13641,92.3222342 Z" id="Shape" fill="#082F67"></path>
            <path d="M1403.73792,152.816327 C1404.83781,148.416756 1404.83781,145.117078 1402.63802,140.717508 C1401.53813,136.317938 1397.13856,135.218045 1390.53921,135.218045 L1279.45005,135.218045 C1273.95059,135.218045 1269.55102,138.517723 1266.25134,142.917293 C1262.95166,146.216971 1261.85177,148.416756 1261.85177,152.816327 L1403.73792,152.816327 Z" id="Shape" fill="#082F67"></path>
            <path d="M1381.74006,284.803437 C1385.03974,281.503759 1387.23953,277.104189 1389.43931,272.704619 L1343.24382,272.704619 C1337.74436,273.804511 1331.14501,269.404941 1330.04511,262.805585 L1330.04511,261.705693 L1350.94307,37.3276047 L1320.14608,37.3276047 L1299.24812,263.905478 C1298.14823,277.104189 1303.64769,292.502685 1334.44468,292.502685 L1363.04189,292.502685 C1369.64125,290.3029 1376.2406,289.203008 1381.74006,284.803437 M1669.91192,284.803437 C1674.31149,281.503759 1675.41139,277.104189 1677.61117,272.704619 C1668.81203,271.604726 1660.01289,269.404941 1652.31364,268.305048 C1627.01611,256.20623 1605.01826,241.907626 1584.1203,224.309345 C1609.41783,210.010741 1634.71536,194.612245 1657.8131,180.313641 C1666.61224,172.614393 1672.11171,162.71536 1672.11171,150.616541 C1671.01182,141.817401 1664.41246,136.317938 1655.61332,136.317938 L1594.01933,136.317938 L1603.91837,93.4221267 L1706.20838,93.4221267 C1707.30827,89.0225564 1707.30827,84.622986 1705.10849,80.2234157 C1701.80881,76.9237379 1697.40924,74.7239527 1693.00967,74.7239527 L1607.21805,74.7239527 L1616.01719,36.2277121 L1583.02041,36.2277121 L1574.22127,74.7239527 L1488.42965,74.7239527 C1484.03008,74.7239527 1478.53061,75.8238453 1475.23093,79.1235231 C1470.83136,82.4232009 1467.53169,87.9226638 1467.53169,92.3222342 L1570.92159,92.3222342 L1561.02256,135.218045 L1496.12889,135.218045 C1490.62943,135.218045 1486.22986,138.517723 1481.83029,140.717508 C1478.53061,144.017186 1477.43072,148.416756 1476.33083,152.816327 L1631.41568,152.816327 C1635.81525,152.816327 1641.31472,160.515575 1627.01611,167.11493 C1603.91837,181.413534 1574.22127,200.111708 1562.12245,206.711063 C1558.82277,203.411386 1541.22449,189.112782 1528.02578,177.013963 C1523.62621,172.614393 1519.22664,171.514501 1513.72718,171.514501 L1479.6305,171.514501 L1535.72503,223.209452 C1521.42642,232.008593 1504.92803,241.907626 1485.12997,252.906552 C1473.03115,260.6058 1459.83244,265.005371 1446.63373,267.205156 L1416.93663,271.604726 C1415.83673,276.004296 1416.93663,280.403867 1418.03652,283.703545 C1419.13641,288.103115 1423.53598,289.203008 1427.93555,289.203008 L1453.23308,289.203008 C1470.83136,283.703545 1488.42965,276.004296 1504.92803,267.205156 C1525.82599,257.306122 1542.32438,248.506982 1553.32331,240.807734 C1556.62299,244.107411 1614.91729,282.603652 1629.2159,289.203008 L1655.61332,289.203008 C1662.21267,289.203008 1666.61224,285.90333 1669.91192,284.803437 M1090.26853,272.704619 L1019.8754,272.704619 L1038.57358,190.212675 L1095.76799,190.212675 C1096.86788,185.813104 1096.86788,181.413534 1094.6681,177.013963 C1090.26853,173.714286 1085.86896,171.514501 1080.3695,172.614393 L1041.87325,172.614393 L1055.07197,113.220193 L1022.07519,113.220193 L1008.87648,172.614393 L971.480129,172.614393 C965.980666,171.514501 959.38131,173.714286 954.98174,177.013963 C951.682062,180.313641 949.482277,185.813104 949.482277,190.212675 L1005.5768,190.212675 L986.878625,272.704619 L935.183673,272.704619 C929.684211,272.704619 923.084855,269.404941 920.88507,263.905478 C919.785177,259.505908 919.785177,255.106337 920.88507,250.706767 L943.982814,151.716434 L994.577873,92.3222342 L1132.06445,92.3222342 C1133.16434,87.9226638 1132.06445,84.622986 1130.96455,80.2234157 C1127.66488,75.8238453 1122.16541,74.7239527 1117.76584,74.7239527 L1009.97637,74.7239527 L1014.37594,69.2244898 L1042.97315,35.1278195 L1005.5768,35.1278195 C1002.27712,38.4274973 975.879699,70.3243824 972.580021,74.7239527 L917.585392,74.7239527 C913.185822,74.7239527 908.786251,75.8238453 904.386681,78.0236305 C899.987111,81.3233083 895.58754,86.8227712 895.58754,92.3222342 L957.181525,92.3222342 C899.987111,162.71536 897.787325,169.314715 872.489796,182.513426 C872.489796,182.513426 869.190118,196.81203 868.090226,200.111708 C881.288937,195.712137 893.387755,190.212675 903.286788,181.413534 L882.388829,272.704619 C881.288937,277.104189 882.388829,281.503759 885.688507,285.90333 C890.088077,289.203008 894.487648,291.402793 898.887218,291.402793 L1062.77121,291.402793 C1070.47046,291.402793 1077.06982,290.3029 1083.66917,283.703545 C1089.16864,280.403867 1090.26853,277.104189 1090.26853,272.704619 M1232.15467,265.005371 C1228.85499,269.404941 1223.35553,273.804511 1217.85607,273.804511 L1132.06445,288.103115 C1133.16434,280.403867 1136.46402,274.904404 1140.86359,269.404941 C1145.26316,265.005371 1149.66273,261.705693 1155.16219,261.705693 L1237.65414,254.006445 C1238.75403,259.505908 1236.55424,261.705693 1232.15467,265.005371" id="Shape" fill="#082F67"></path>
            <path d="M1365.24168,172.614393 C1357.54243,185.813104 1348.74329,199.011815 1338.84425,210.010741 C1333.34479,215.510204 1325.64554,218.809882 1316.8464,219.909774 L1270.65091,219.909774 C1265.15145,219.909774 1258.55209,221.009667 1253.05263,224.309345 C1248.65306,227.609023 1245.35338,233.108485 1245.35338,237.508056 L1283.84962,237.508056 C1327.84533,237.508056 1339.94415,237.508056 1361.942,219.909774 C1376.2406,205.611171 1388.33942,190.212675 1399.33835,172.614393 L1365.24168,172.614393 L1365.24168,172.614393 Z M849.392052,412.390977 C850.491944,403.591837 854.891515,394.792696 859.291085,387.093448 C862.590763,382.693878 866.990333,378.294307 871.389903,373.894737 C875.789474,369.495166 880.189044,366.195489 885.688507,365.095596 C893.387755,361.795918 899.987111,360.696026 907.686359,360.696026 C919.785177,359.596133 931.883996,365.095596 938.483351,373.894737 C946.182599,385.993555 947.282492,399.192266 942.882922,411.291085 C939.583244,425.589689 932.983888,439.888292 920.88507,448.687433 C910.986037,457.486574 896.687433,461.886144 882.388829,461.886144 C870.290011,462.986037 859.291085,457.486574 849.392052,448.687433 C847.192266,437.688507 844.992481,424.489796 849.392052,412.390977 L849.392052,412.390977 Z M870.290011,412.390977 C866.990333,421.190118 869.190118,429.989259 871.389903,437.688507 C875.789474,443.18797 881.288937,446.487648 888.988185,446.487648 C896.687433,446.487648 905.486574,443.18797 909.886144,437.688507 C917.585392,429.989259 921.984962,421.190118 923.084855,411.291085 C926.384533,402.491944 926.384533,393.692803 921.984962,385.993555 C917.585392,380.494092 912.085929,377.194415 904.386681,377.194415 C896.687433,377.194415 887.888292,380.494092 882.388829,385.993555 C876.889366,393.692803 872.489796,402.491944 870.290011,412.390977 L870.290011,412.390977 Z M1014.37594,461.886144 L995.677766,461.886144 L1004.47691,424.489796 C1005.5768,420.090226 1005.5768,414.590763 1007.77658,410.191192 C1007.77658,409.0913 1006.67669,405.791622 1004.47691,404.691729 C1003.37701,403.591837 1000.07734,403.591837 998.977444,403.591837 C995.677766,403.591837 993.477981,404.691729 990.178303,406.891515 C986.878625,409.0913 984.67884,411.291085 982.479055,414.590763 C979.179377,420.090226 978.079484,424.489796 978.079484,431.089151 L970.380236,464.085929 L951.682062,464.085929 L968.180451,393.692803 L985.778733,393.692803 L982.479055,403.591837 C990.178303,395.892589 998.977444,391.493018 1008.87648,391.493018 C1013.27605,391.493018 1016.57573,391.493018 1018.77551,394.792696 C1022.07519,395.892589 1023.17508,398.092374 1024.27497,400.292159 C1025.37487,403.591837 1025.37487,404.691729 1025.37487,407.991407 C1025.37487,412.390977 1024.27497,416.790548 1024.27497,421.190118 L1014.37594,461.886144 L1014.37594,461.886144 Z M1033.07411,461.886144 L1055.07197,362.895811 L1073.77014,362.895811 L1051.77229,461.886144 L1033.07411,461.886144 Z M1071.57035,461.886144 L1088.06874,391.493018 L1106.76692,391.493018 L1090.26853,461.886144 L1071.57035,461.886144 Z M1090.26853,380.494092 L1094.6681,362.895811 L1113.36627,362.895811 L1107.86681,380.494092 L1090.26853,380.494092 Z M1173.86037,461.886144 L1155.16219,461.886144 L1163.96133,424.489796 C1165.06122,420.090226 1165.06122,414.590763 1167.26101,410.191192 C1167.26101,409.0913 1166.16112,405.791622 1163.96133,404.691729 C1162.86144,403.591837 1159.56176,403.591837 1158.46187,403.591837 C1155.16219,403.591837 1152.96241,404.691729 1149.66273,406.891515 C1146.36305,407.991407 1144.16327,411.291085 1141.96348,414.590763 C1138.6638,420.090226 1137.56391,424.489796 1137.56391,431.089151 L1129.86466,464.085929 L1111.16649,464.085929 L1127.66488,393.692803 L1145.26316,393.692803 L1141.96348,403.591837 C1149.66273,395.892589 1158.46187,391.493018 1168.3609,391.493018 C1172.76047,391.493018 1176.06015,391.493018 1178.25994,394.792696 C1181.55961,395.892589 1182.65951,398.092374 1183.7594,400.292159 C1184.85929,403.591837 1184.85929,404.691729 1184.85929,407.991407 C1184.85929,412.390977 1183.7594,416.790548 1183.7594,421.190118 L1173.86037,461.886144 L1173.86037,461.886144 Z M1239.85392,437.688507 L1257.4522,440.988185 C1254.15252,446.487648 1248.65306,453.087003 1243.1536,457.486574 C1237.65414,461.886144 1229.95489,462.986037 1222.25564,462.986037 C1212.35661,464.085929 1203.55747,459.686359 1196.95811,450.887218 C1193.65843,443.18797 1192.55854,434.388829 1195.85822,425.589689 C1196.95811,415.690655 1203.55747,404.691729 1212.35661,396.992481 C1220.05585,391.493018 1228.85499,387.093448 1237.65414,387.093448 C1246.45328,385.993555 1255.25242,390.393126 1259.65199,396.992481 C1264.05156,406.891515 1265.15145,418.990333 1260.75188,429.989259 L1213.4565,429.989259 C1212.35661,434.388829 1213.4565,438.7884 1214.55639,443.18797 C1217.85607,446.487648 1220.05585,447.58754 1224.45542,447.58754 C1227.7551,447.58754 1229.95489,446.487648 1232.15467,444.287863 C1236.55424,444.287863 1238.75403,440.988185 1239.85392,437.688507 L1239.85392,437.688507 Z M1245.35338,418.990333 C1246.45328,414.590763 1246.45328,410.191192 1244.25349,406.891515 C1243.1536,403.591837 1238.75403,402.491944 1235.45435,402.491944 C1231.05478,402.491944 1226.65521,403.591837 1223.35553,406.891515 C1220.05585,410.191192 1217.85607,414.590763 1215.65628,418.990333 L1245.35338,418.990333 L1245.35338,418.990333 Z M1346.5435,461.886144 L1368.54135,362.895811 L1401.53813,362.895811 C1409.23738,362.895811 1418.03652,362.895811 1424.63588,363.995704 C1430.13534,365.095596 1433.43502,368.395274 1436.73469,373.894737 C1440.03437,379.3942 1440.03437,387.093448 1437.83459,392.592911 C1436.73469,398.092374 1434.53491,402.491944 1430.13534,406.891515 C1424.63588,414.590763 1416.93663,420.090226 1408.13749,421.190118 C1400.43824,422.290011 1394.93878,422.290011 1387.23953,422.290011 L1374.04082,422.290011 L1365.24168,459.686359 L1346.5435,459.686359 L1346.5435,461.886144 Z M1385.03974,379.3942 L1379.54028,407.991407 L1389.43931,407.991407 C1394.93878,407.991407 1399.33835,407.991407 1405.9377,406.891515 C1409.23738,405.791622 1411.43716,403.591837 1413.63695,402.491944 C1414.73684,401.392052 1416.93663,398.092374 1418.03652,394.792696 C1419.13641,391.493018 1418.03652,389.293233 1416.93663,385.993555 C1415.83673,382.693878 1412.53706,381.593985 1409.23738,381.593985 L1394.93878,381.593985 L1385.03974,379.3942 L1385.03974,379.3942 Z M1463.13212,411.291085 L1446.63373,407.991407 C1449.9334,402.491944 1454.33298,395.892589 1459.83244,393.692803 C1467.53169,390.393126 1474.13104,388.19334 1481.83029,389.293233 C1487.32975,389.293233 1493.92911,389.293233 1499.42857,392.592911 C1502.72825,393.692803 1504.92803,396.992481 1507.12782,400.292159 C1508.22771,405.791622 1507.12782,412.390977 1506.02793,416.790548 L1500.52846,438.7884 C1499.42857,443.18797 1499.42857,447.58754 1497.22879,451.987111 C1497.22879,455.286788 1497.22879,457.486574 1498.32868,461.886144 L1479.6305,461.886144 L1479.6305,453.087003 C1476.33083,456.386681 1471.93126,458.586466 1467.53169,460.786251 C1463.13212,461.886144 1459.83244,464.085929 1455.43287,464.085929 C1449.9334,464.085929 1443.33405,462.986037 1438.93448,458.586466 C1435.6348,454.186896 1434.53491,448.687433 1435.6348,444.287863 C1436.73469,439.888292 1438.93448,436.588614 1441.13426,434.388829 C1444.43394,431.089151 1446.63373,428.889366 1451.0333,426.689581 C1455.43287,425.589689 1460.93233,423.389903 1467.53169,422.290011 C1473.03115,421.190118 1480.7304,418.990333 1486.22986,417.89044 L1486.22986,416.790548 C1487.32975,413.49087 1486.22986,411.291085 1485.12997,409.0913 C1481.83029,407.991407 1479.6305,405.791622 1475.23093,405.791622 C1471.93126,405.791622 1469.73147,405.791622 1466.43179,406.891515 C1467.53169,406.891515 1464.23201,410.191192 1463.13212,411.291085 L1463.13212,411.291085 Z M1485.12997,426.689581 C1480.7304,427.789474 1477.43072,427.789474 1473.03115,429.989259 C1468.63158,429.989259 1465.3319,431.089151 1463.13212,433.288937 C1459.83244,434.388829 1458.73255,437.688507 1458.73255,438.7884 C1458.73255,442.088077 1458.73255,443.18797 1459.83244,446.487648 C1460.93233,447.58754 1464.23201,449.787325 1467.53169,449.787325 C1471.93126,449.787325 1475.23093,448.687433 1477.43072,446.487648 C1480.7304,445.387755 1481.83029,443.18797 1482.93018,440.988185 C1484.03008,437.688507 1486.22986,435.488722 1486.22986,432.189044 L1485.12997,426.689581 L1485.12997,426.689581 Z M1522.52632,389.293233 L1543.42427,389.293233 L1548.92374,439.888292 L1577.52095,389.293233 L1596.21912,389.293233 L1554.4232,457.486574 L1546.72395,469.585392 C1545.62406,472.88507 1542.32438,475.084855 1539.0247,478.384533 L1533.52524,483.883996 C1530.22556,484.983888 1528.02578,487.183673 1525.82599,487.183673 C1522.52632,488.283566 1520.32653,488.283566 1515.92696,488.283566 C1512.62728,488.283566 1508.22771,488.283566 1506.02793,487.183673 L1507.12782,472.88507 C1510.4275,472.88507 1512.62728,473.984962 1514.82707,473.984962 C1519.22664,473.984962 1522.52632,472.88507 1524.7261,469.585392 C1528.02578,466.285714 1530.22556,464.085929 1532.42535,459.686359 L1522.52632,389.293233 L1522.52632,389.293233 Z M1605.01826,389.293233 L1622.61654,389.293233 L1619.31686,399.192266 C1624.81633,391.493018 1633.61547,389.293233 1644.61439,387.093448 C1649.01396,387.093448 1652.31364,388.19334 1656.71321,390.393126 C1660.01289,391.493018 1662.21267,394.792696 1662.21267,399.192266 C1665.51235,395.892589 1669.91192,393.692803 1674.31149,390.393126 C1678.71106,389.293233 1682.01074,387.093448 1686.41031,387.093448 C1690.80988,387.093448 1695.20945,388.19334 1698.50913,390.393126 C1701.80881,393.692803 1704.00859,395.892589 1704.00859,399.192266 C1704.00859,403.591837 1704.00859,409.0913 1702.9087,413.49087 L1693.00967,459.686359 L1674.31149,459.686359 L1683.11063,417.89044 C1684.21053,413.49087 1684.21053,409.0913 1684.21053,404.691729 C1683.11063,401.392052 1679.81096,400.292159 1676.51128,400.292159 C1673.2116,400.292159 1671.01182,401.392052 1668.81203,403.591837 C1665.51235,404.691729 1664.41246,407.991407 1663.31257,411.291085 C1660.01289,415.690655 1658.913,421.190118 1658.913,425.589689 L1651.21375,459.686359 L1632.51557,459.686359 L1641.31472,421.190118 C1642.41461,416.790548 1642.41461,412.390977 1642.41461,407.991407 C1642.41461,406.891515 1641.31472,404.691729 1641.31472,403.591837 C1640.21482,402.491944 1638.01504,402.491944 1635.81525,402.491944 C1632.51557,402.491944 1630.31579,403.591837 1627.01611,405.791622 C1623.71643,406.891515 1622.61654,410.191192 1621.51665,413.49087 C1618.21697,417.89044 1617.11708,423.389903 1617.11708,427.789474 L1609.41783,461.886144 L1590.71966,461.886144 L1605.01826,389.293233 L1605.01826,389.293233 Z M1759.00322,437.688507 L1776.6015,440.988185 C1773.30183,446.487648 1767.80236,453.087003 1762.3029,457.486574 C1756.80344,461.886144 1749.10419,462.986037 1741.40494,462.986037 C1731.50591,464.085929 1722.70677,459.686359 1716.10741,450.887218 C1712.80773,443.18797 1711.70784,434.388829 1715.00752,425.589689 C1716.10741,415.690655 1722.70677,404.691729 1731.50591,396.992481 C1739.20516,391.493018 1748.0043,387.093448 1756.80344,387.093448 C1765.60258,385.993555 1774.40172,390.393126 1778.80129,396.992481 C1783.20086,406.891515 1784.30075,418.990333 1779.90118,429.989259 L1732.6058,429.989259 C1731.50591,434.388829 1731.50591,438.7884 1733.70569,443.18797 C1737.00537,446.487648 1739.20516,447.58754 1743.60473,447.58754 C1746.9044,447.58754 1749.10419,446.487648 1751.30397,444.287863 C1755.70354,444.287863 1756.80344,440.988185 1759.00322,437.688507 L1759.00322,437.688507 Z M1764.50269,418.990333 C1765.60258,414.590763 1765.60258,410.191192 1763.40279,406.891515 C1762.3029,403.591837 1757.90333,402.491944 1754.60365,402.491944 C1750.20408,402.491944 1745.80451,403.591837 1742.50483,406.891515 C1739.20516,410.191192 1737.00537,414.590763 1734.80559,418.990333 L1764.50269,418.990333 L1764.50269,418.990333 Z M1853.59398,461.886144 L1834.89581,461.886144 L1843.69495,424.489796 C1844.79484,420.090226 1844.79484,414.590763 1844.79484,410.191192 C1844.79484,409.0913 1843.69495,405.791622 1841.49517,404.691729 C1840.39527,403.591837 1837.0956,403.591837 1835.9957,403.591837 C1832.69603,403.591837 1830.49624,404.691729 1827.19656,406.891515 C1823.89689,407.991407 1821.6971,411.291085 1819.49731,414.590763 C1816.19764,420.090226 1815.09774,424.489796 1813.99785,431.089151 L1806.2986,464.085929 L1787.60043,464.085929 L1804.09882,393.692803 L1821.6971,393.692803 L1818.39742,403.591837 C1826.09667,395.892589 1834.89581,391.493018 1844.79484,391.493018 C1849.19441,391.493018 1852.49409,391.493018 1854.69388,394.792696 C1857.99356,395.892589 1859.09345,398.092374 1860.19334,400.292159 C1861.29323,403.591837 1861.29323,404.691729 1861.29323,407.991407 C1861.29323,412.390977 1860.19334,416.790548 1860.19334,421.190118 L1853.59398,461.886144 L1853.59398,461.886144 Z M1922.88722,389.293233 L1919.58754,403.591837 L1906.38883,403.591837 L1900.88937,433.288937 C1899.78947,436.588614 1899.78947,440.988185 1899.78947,443.18797 C1899.78947,444.287863 1899.78947,444.287863 1900.88937,446.487648 C1901.98926,446.487648 1901.98926,447.58754 1904.18904,447.58754 C1907.48872,447.58754 1909.68851,446.487648 1911.88829,446.487648 L1910.7884,460.786251 C1906.38883,461.886144 1900.88937,464.085929 1894.29001,464.085929 C1890.99033,464.085929 1888.79055,464.085929 1885.49087,462.986037 C1884.39098,461.886144 1881.0913,459.686359 1881.0913,458.586466 C1879.99141,455.286788 1879.99141,454.186896 1879.99141,450.887218 C1879.99141,446.487648 1881.0913,442.088077 1883.29108,437.688507 L1890.99033,406.891515 L1882.19119,406.891515 L1885.49087,392.592911 L1894.29001,392.592911 L1898.68958,367.295381 L1917.38776,367.295381 L1911.88829,392.592911 L1922.88722,389.293233 L1922.88722,389.293233 Z" id="Shape" fill="#082F67"></path>
        </g>
    </g>
</svg>