<svg width="146" height="116" viewBox="0 0 146 116" xmlns="http://www.w3.org/2000/svg" xmlns:xlink="http://www.w3.org/1999/xlink"><title>Icon 2</title><defs><path d="M29 28.998A4.995 4.995 0 0 1 33.995 24h4.01A4.991 4.991 0 0 1 43 28.998V102H29V28.998z" id="a"/><path d="M51 65.004A4.998 4.998 0 0 1 55.995 60h4.01A5.001 5.001 0 0 1 65 65.004V102H51V65.004z" id="b"/><path d="M62 79.006A4.999 4.999 0 0 1 66.995 74h4.01A5.002 5.002 0 0 1 76 79.006V102H62V79.006z" id="c"/><path d="M40 14.995A4.994 4.994 0 0 1 44.995 10h4.01A4.99 4.99 0 0 1 54 14.995V102H40V14.995z" id="d"/></defs><g fill="none" fill-rule="evenodd"><path d="M43.862 101C28.892 91.172 19 74.246 19 55 19 24.624 43.624 0 74 0c30.375 0 55 24.624 55 55 0 19.246-9.893 36.172-24.863 46H43.862z" fill="#CEECD3"/><path d="M74 19c19.33 0 35 15.67 35 35S93.33 89 74 89 39 73.33 39 54s15.67-35 35-35" fill="#DFF3E3"/><path d="M118.5 99h-94a1.5 1.5 0 0 0 0 3h94a1.5 1.5 0 0 0 0-3m5 0a1.5 1.5 0 1 0 .001 3.001A1.5 1.5 0 0 0 123.5 99" fill="#354052"/><path d="M93.5 106h-54a1.5 1.5 0 0 0 0 3h54a1.5 1.5 0 0 0 0-3m12 0h-7a1.5 1.5 0 0 0 0 3h7a1.5 1.5 0 0 0 0-3m-22 7h-34a1.5 1.5 0 0 0 0 3h34a1.5 1.5 0 0 0 0-3m8 0h-3a1.5 1.5 0 0 0 0 3h3a1.5 1.5 0 0 0 0-3" fill="#1BB934"/><path d="M92 30c19.882 0 36 16.118 36 36 0 10.195-4.238 19.401-11.049 25.951L92 67V30z" fill="#EDF9FE"/><path d="M92 30c-19.882 0-36 16.118-36 36 0 10.195 4.238 19.401 11.049 25.951L92 67V30z" fill="#1BB934"/><path d="M66.207 91.114C72.747 97.83 81.887 102 92 102c9.687 0 18.48-3.826 24.951-10.049L92 67 66.207 91.114z" fill="#FFF"/><circle stroke="#354052" stroke-width="3" cx="92" cy="66" r="34.5"/><rect fill="#354052" x="90" y="32" width="3" height="35" rx="1.5"/><rect fill="#354052" transform="rotate(-45 103.5 78.5)" x="102" y="61" width="3" height="35" rx="1.5"/><rect fill="#354052" transform="rotate(45 79.5 78.5)" x="78" y="61" width="3" height="35" rx="1.5"/><use fill="#EDF9FE" xlink:href="#a"/><path stroke="#354052" stroke-width="3" d="M41.5 100.5h-11V28.998a3.495 3.495 0 0 1 3.495-3.498h4.01a3.491 3.491 0 0 1 3.495 3.498V100.5z"/><use fill="#EDF9FE" xlink:href="#b"/><path stroke="#354052" stroke-width="3" d="M63.5 100.5h-11V65.004a3.498 3.498 0 0 1 3.495-3.504h4.01a3.501 3.501 0 0 1 3.495 3.504V100.5z"/><use fill="#EDF9FE" xlink:href="#c"/><path stroke="#354052" stroke-width="3" d="M74.5 100.5h-11V79.006a3.499 3.499 0 0 1 3.495-3.506h4.01a3.502 3.502 0 0 1 3.495 3.506V100.5z"/><use fill="#1BB934" xlink:href="#d"/><path stroke="#354052" stroke-width="3" d="M52.5 100.5h-11V14.995a3.494 3.494 0 0 1 3.495-3.495h4.01a3.49 3.49 0 0 1 3.495 3.495V100.5z"/><path d="M53.915 50.504a1.5 1.5 0 0 0 .085-.499V44v1a1.5 1.5 0 0 1-3 0v-1 6.005c0 .174.03.342.085.498a1.5 1.5 0 1 1 2.83.002z" fill="#EDF9FE"/><path d="M53.915 56.504a1.5 1.5 0 0 0 .085-.499V50v1a1.5 1.5 0 0 1-3 0v-1 6.005c0 .174.03.342.085.498a1.5 1.5 0 1 1 2.83.002z" fill="#EDF9FE"/><path d="M138.5 4a1.5 1.5 0 1 0 .001 3.001 1.5 1.5 0 0 0-.001-3M1.5 41a1.5 1.5 0 1 0 .001 3 1.5 1.5 0 0 0-.001-3M21 2h-1V1a1 1 0 0 0-2 0v1h-1a1 1 0 0 0 0 2h1v1a1 1 0 0 0 2 0V4h1a1 1 0 0 0 0-2M8 71H7v-1a1 1 0 0 0-2 0v1H4a1 1 0 0 0 0 2h1v1a1 1 0 0 0 2 0v-1h1a1 1 0 0 0 0-2m137-37h-1v-1a1 1 0 0 0-2 0v1h-1a1 1 0 0 0 0 2h1v1a1 1 0 0 0 2 0v-1h1a1 1 0 0 0 0-2" fill="#BFC7D2"/></g></svg>