<svg width="143" height="116" viewBox="0 0 143 116" xmlns="http://www.w3.org/2000/svg" xmlns:xlink="http://www.w3.org/1999/xlink"><title>Icon 1</title><defs><rect id="a" x="72" y="59" width="42" height="42" rx="9"/><rect id="b" x="30" y="3" width="55" height="99" rx="9"/></defs><g fill="none" fill-rule="evenodd"><path d="M41.862 101C26.892 91.172 17 74.246 17 55 17 24.624 41.624 0 72 0c30.375 0 55 24.624 55 55 0 19.246-9.893 36.172-24.863 46H41.862z" fill="#C2EAFC"/><path d="M72 19c19.33 0 35 15.67 35 35S91.33 89 72 89 37 73.33 37 54s15.67-35 35-35" fill="#D8F1FD"/><path d="M116.5 99h-94a1.5 1.5 0 0 0 0 3h94a1.5 1.5 0 0 0 0-3m5 0a1.5 1.5 0 1 0 .001 3.001A1.5 1.5 0 0 0 121.5 99" fill="#354052"/><path d="M91.5 106h-54a1.5 1.5 0 0 0 0 3h54a1.5 1.5 0 0 0 0-3m12 0h-7a1.5 1.5 0 0 0 0 3h7a1.5 1.5 0 0 0 0-3m-22 7h-34a1.5 1.5 0 0 0 0 3h34a1.5 1.5 0 0 0 0-3m8 0h-3a1.5 1.5 0 0 0 0 3h3a1.5 1.5 0 0 0 0-3" fill="#0AF"/><use fill="#EDF9FE" xlink:href="#a"/><rect stroke="#354052" stroke-width="3" x="73.5" y="60.5" width="39" height="39" rx="9"/><path d="M101 88H83v-.09a5.996 5.996 0 1 1 2.904-11.596A7.994 7.994 0 0 1 93 72a8 8 0 0 1 8 8 4 4 0 0 1 0 8" fill="#0AF"/><use fill="#EDF9FE" xlink:href="#b"/><rect stroke="#354052" stroke-width="3" x="31.5" y="4.5" width="52" height="96" rx="9"/><path fill="#FFF" d="M33 19h49v64H33z"/><rect fill="#354052" x="34" y="16" width="6" height="3" rx="1.5"/><rect fill="#354052" x="41" y="16" width="43" height="3" rx="1.5"/><rect fill="#354052" x="34" y="83" width="6" height="3" rx="1.5"/><rect fill="#354052" x="41" y="83" width="43" height="3" rx="1.5"/><path d="M32.915 47.504a1.5 1.5 0 0 0 .085-.499V41v1a1.5 1.5 0 0 1-3 0v-1 6.005c0 .174.03.342.085.498a1.5 1.5 0 1 1 2.83.002z" fill="#EDF9FE"/><rect fill="#BFC7D2" x="54" y="10" width="7" height="2" rx="1"/><circle fill="#0AF" cx="57.5" cy="92.5" r="3.5"/><path d="M141.5 74a1.5 1.5 0 1 0 .001 3.001A1.5 1.5 0 0 0 141.5 74M134 16h-1v-1a1 1 0 0 0-2 0v1h-1a1 1 0 0 0 0 2h1v1a1 1 0 0 0 2 0v-1h1a1 1 0 0 0 0-2M5 68H4v-1a1 1 0 0 0-2 0v1H1a1 1 0 0 0 0 2h1v1a1 1 0 0 0 2 0v-1h1a1 1 0 0 0 0-2" fill="#BFC7D2"/></g></svg>