<svg width="140" height="116" viewBox="0 0 140 116" xmlns="http://www.w3.org/2000/svg" xmlns:xlink="http://www.w3.org/1999/xlink"><title>Icon 3</title><defs><path d="M33 12.004A9 9 0 0 1 42.01 3h65.98c4.976 0 9.01 4.034 9.01 9.004V102H33V12.004z" id="a"/></defs><g fill="none" fill-rule="evenodd"><path d="M45.862 101C30.892 91.172 21 74.246 21 55 21 24.624 45.624 0 76 0c30.375 0 55 24.624 55 55 0 19.246-9.893 36.172-24.863 46H45.862z" fill="#E2DAFB"/><path d="M120.5 99h-94a1.5 1.5 0 0 0 0 3h94a1.5 1.5 0 0 0 0-3m5 0a1.5 1.5 0 1 0 .001 3.001A1.5 1.5 0 0 0 125.5 99" fill="#354052"/><path d="M95.5 106h-54a1.5 1.5 0 0 0 0 3h54a1.5 1.5 0 0 0 0-3m12 0h-7a1.5 1.5 0 0 0 0 3h7a1.5 1.5 0 0 0 0-3m-22 7h-34a1.5 1.5 0 0 0 0 3h34a1.5 1.5 0 0 0 0-3m8 0h-3a1.5 1.5 0 0 0 0 3h3a1.5 1.5 0 0 0 0-3" fill="#8360E7"/><use fill="#FFF" xlink:href="#a"/><path stroke="#354052" stroke-width="3" d="M115.5 100.5h-81V12.004A7.5 7.5 0 0 1 42.01 4.5h65.98c4.147 0 7.51 3.362 7.51 7.504V100.5z"/><rect fill="#BFC7D2" x="105" y="8" width="6" height="2" rx="1"/><path d="M35.915 47.504a1.5 1.5 0 0 0 .085-.499V41v1a1.5 1.5 0 0 1-3 0v-1 6.005c0 .174.03.342.085.498a1.5 1.5 0 1 1 2.83.002z" fill="#E2DAFB"/><rect fill="#354052" x="37" y="12" width="6" height="3" rx="1.5"/><rect fill="#354052" x="44" y="12" width="73" height="3" rx="1.5"/><path fill="#354052" d="M90 15h27v84H90z"/><path fill="#BFC7D2" d="M40 8h2v2h-2zm3 0h2v2h-2zm3 0h2v2h-2z"/><rect fill="#BFC7D2" x="40" y="20" width="21" height="3" rx="1"/><rect fill="#BFC7D2" x="48" y="26" width="19" height="3" rx="1"/><rect fill="#BFC7D2" x="40" y="26" width="6" height="3" rx="1"/><rect fill="#8360E7" x="40" y="32" width="14" height="3" rx="1"/><rect fill="#8360E7" x="56" y="32" width="7" height="3" rx="1"/><rect fill="#8360E7" x="65" y="32" width="5" height="3" rx="1"/><rect fill="#8360E7" x="40" y="44" width="15" height="3" rx="1"/><rect fill="#8360E7" x="48" y="62" width="24" height="3" rx="1"/><rect fill="#8360E7" x="57" y="44" width="10" height="3" rx="1"/><rect fill="#8360E7" x="69" y="44" width="15" height="3" rx="1"/><rect fill="#BFC7D2" x="69" y="26" width="12" height="3" rx="1"/><rect fill="#BFC7D2" x="57" y="68" width="10" height="3" rx="1"/><rect fill="#BFC7D2" x="40" y="68" width="15" height="3" rx="1"/><rect fill="#BFC7D2" x="40" y="80" width="15" height="3" rx="1"/><rect fill="#BFC7D2" x="40" y="86" width="6" height="3" rx="1"/><rect fill="#BFC7D2" x="40" y="74" width="6" height="3" rx="1"/><rect fill="#BFC7D2" x="48" y="74" width="9" height="3" rx="1"/><rect fill="#BFC7D2" x="69" y="68" width="15" height="3" rx="1"/><rect fill="#BFC7D2" x="48" y="38" width="14" height="3" rx="1"/><rect fill="#BFC7D2" x="40" y="38" width="6" height="3" rx="1"/><rect fill="#BFC7D2" x="40" y="56" width="15" height="3" rx="1"/><rect fill="#BFC7D2" x="40" y="50" width="6" height="3" rx="1"/><rect fill="#BFC7D2" x="48" y="50" width="9" height="3" rx="1"/><rect fill="#BFC7D2" x="40" y="62" width="6" height="3" rx="1"/><rect fill="#FFF" x="95" y="20" width="11" height="3" rx="1.5"/><rect fill="#FFF" x="95" y="32" width="15" height="3" rx="1.5"/><rect fill="#FFF" x="95" y="44" width="11" height="3" rx="1.5"/><rect fill="#8360E7" x="100" y="91" width="10" height="3" rx="1.5"/><rect fill="#FFF" x="95" y="91" width="3" height="3" rx="1.5"/><rect fill="#FFF" x="95" y="26" width="6" height="3" rx="1.5"/><rect fill="#FFF" x="95" y="38" width="6" height="3" rx="1.5"/><rect fill="#FFF" x="103" y="38" width="4" height="3" rx="1.5"/><rect fill="#FFF" x="103" y="26" width="9" height="3" rx="1.5"/><rect fill="#FFF" x="95" y="56" width="15" height="3" rx="1.5"/><rect fill="#FFF" x="95" y="50" width="6" height="3" rx="1.5"/><rect fill="#FFF" x="95" y="62" width="6" height="3" rx="1.5"/><rect fill="#FFF" x="103" y="62" width="4" height="3" rx="1.5"/><rect fill="#FFF" x="103" y="50" width="9" height="3" rx="1.5"/><path d="M138.5 72a1.5 1.5 0 1 0 0 3 1.5 1.5 0 0 0 0-3M3 11.5a1.5 1.5 0 1 0-3.001.001 1.5 1.5 0 0 0 3-.001M136 13h-1v-1a1 1 0 0 0-2 0v1h-1a1 1 0 0 0 0 2h1v1a1 1 0 0 0 2 0v-1h1a1 1 0 0 0 0-2M7 65H6v-1a1 1 0 0 0-2 0v1H3a1 1 0 0 0 0 2h1v1a1 1 0 0 0 2 0v-1h1a1 1 0 0 0 0-2" fill="#BFC7D2"/></g></svg>