<svg width="40" height="40" viewBox="0 0 40 40" xmlns="http://www.w3.org/2000/svg"><title>Icon</title><defs><linearGradient x1="102%" y1="101%" x2="0%" y2="0%" id="a"><stop stop-color="#6758F3" offset="0%"/><stop stop-color="#E061F5" offset="100%"/></linearGradient></defs><g fill="none" fill-rule="evenodd"><rect fill="url(#a)" width="40" height="40" rx="8"/><path d="M20 15v-4H10v18h20V15H20zm-6 12h-2v-2h2v2zm0-4h-2v-2h2v2zm0-4h-2v-2h2v2zm0-4h-2v-2h2v2zm4 12h-2v-2h2v2zm0-4h-2v-2h2v2zm0-4h-2v-2h2v2zm0-4h-2v-2h2v2zm10 12h-8v-2h2v-2h-2v-2h2v-2h-2v-2h8v10zm-2-8h-2v2h2v-2zm0 4h-2v2h2v-2z" fill="#FFF"/></g></svg>