<?xml version="1.0" standalone="no"?><!DOCTYPE svg PUBLIC "-//W3C//DTD SVG 1.1//EN" "http://www.w3.org/Graphics/SVG/1.1/DTD/svg11.dtd"><svg t="1487149597741" class="icon" style="" viewBox="0 0 1024 1024" version="1.1" xmlns="http://www.w3.org/2000/svg" p-id="2077" xmlns:xlink="http://www.w3.org/1999/xlink" width="40" height="40"><defs><style type="text/css"></style></defs><path d="M232.194 510.007m-77.055 0a77.055 77.055 0 1 0 154.11 0 77.055 77.055 0 1 0-154.11 0Z" p-id="2078" fill="#efefef"></path><path d="M512.756 587.064c-42.559 0-77.058-34.5-77.058-77.057a77.06 77.06 0 0 1 115.586-66.734 77.062 77.062 0 0 1 38.527 66.734c0.001 42.557-34.499 77.057-77.055 77.057z" p-id="2079" fill="#ff9900"></path><path d="M792.377 510.007m-77.055 0a77.055 77.055 0 1 0 154.11 0 77.055 77.055 0 1 0-154.11 0Z" p-id="2080" fill="#efefef"></path></svg>