<?xml version="1.0" standalone="no"?><!DOCTYPE svg PUBLIC "-//W3C//DTD SVG 1.1//EN" "http://www.w3.org/Graphics/SVG/1.1/DTD/svg11.dtd"><svg width="80" height="80" viewBox="0 0 80 80" version="1.1" xmlns="http://www.w3.org/2000/svg" xmlns:xlink="http://www.w3.org/1999/xlink"><defs><style type="text/css"><![CDATA[
@font-face { font-family: ifont; src: url("//at.alicdn.com/t/font_1442373896_4754455.eot?#iefix") format("embedded-opentype"), url("//at.alicdn.com/t/font_1442373896_4754455.woff") format("woff"), url("//at.alicdn.com/t/font_1442373896_4754455.ttf") format("truetype"), url("//at.alicdn.com/t/font_1442373896_4754455.svg#ifont") format("svg"); }

]]></style></defs><g class="transform-group"><g transform="scale(0.078125, 0.078125)"><path d="M128.458089 781.09481c0 64.142312 49.667725 114.446205 114.434613 114.446205l173.533944 0 155.92948-155.3103c-8.173458-17.597069-12.577472-36.461079-12.577472-57.216008 0-76.700797 62.878169-138.324816 139.585961-138.324816 42.754013 0 82.997528 20.122357 108.145477 50.926272 18.863211 23.897797 31.441683 54.709707 31.441683 88.02412 0 54.708707-33.321408 103.747459-82.996528 125.128763-32.69983 14.465193-84.251677 20.750931-115.064786-1.879726l-86.764973 88.02312 222.573495 0c64.136316 0 118.839027-50.296699 118.839027-114.438211L895.538009 247.289929c0-64.13032-54.702712-118.833631-118.839027-118.833631l-409.314485 0 0 81.10681c0 0.631572 18.86361 6.918309 20.747333 8.176856 8.180853 3.770444 15.716744 8.802032 22.631056 13.831023 25.152946 16.977489 42.760808 44.013559 72.940346 52.813992 9.431605 2.519292 45.89988 3.144468 55.959859 0 18.23064-5.027991 32.692834-17.603065 45.900679-30.178939 30.174542-28.293217 65.38347-51.557444 108.774051-51.557444 42.753813 0 88.02412 22.635053 113.171869 57.217606 34.580554 46.526255 35.209928 121.9759 0 168.506752-25.14775 33.95298-66.642616 55.329886-112.546493 55.329886-27.661246 0-55.956861-8.173458-79.221088-24.521774-27.036669-18.231639-44.014958-45.89928-76.707792-55.95846-9.431605-2.517293-46.532851-2.517293-55.964856 0-32.688237 9.431605-50.925872 37.097848-77.958344 55.95846-23.265226 15.719342-49.043149 24.521774-77.337365 24.521774-45.903677-0.629573-86.139397-23.892201-111.290745-59.732901-26.408495-37.095249-33.948383-86.139797-18.22964-128.894809 13.827025-38.353996 43.380988-69.162508 81.103412-82.994929L279.35678 128.456299l-36.464277 0c-64.766888 0-114.434613 54.703311-114.434613 118.833631L128.45789 781.09481zM701.881708 618.889185c34.722258 0 62.875171 28.143918 62.875171 62.874171 0 34.727255-28.152912 62.87617-62.875171 62.87617s-62.875171-28.148915-62.875171-62.87617C639.006538 647.032904 667.15945 618.889185 701.881708 618.889185zM330.290647 281.242909c33.329403 0 60.358477 27.025077 60.358477 60.359876 0 33.338397-27.029074 60.361875-60.358477 60.361875-33.340395 0-60.365472-27.023678-60.365472-60.361875C269.925175 308.267986 296.950252 281.242909 330.290647 281.242909zM693.709249 281.242909c33.335399 0 60.357877 27.025077 60.357877 60.359876 0 33.338397-27.022679 60.361875-60.357877 60.361875-33.337397 0-60.361875-27.023678-60.361875-60.361875C633.347374 308.267986 660.372052 281.242909 693.709249 281.242909z" fill="#ddd"></path></g></g></svg>