<?xml version="1.0" standalone="no"?><!DOCTYPE svg PUBLIC "-//W3C//DTD SVG 1.1//EN" "http://www.w3.org/Graphics/SVG/1.1/DTD/svg11.dtd"><svg class="icon" width="200px" height="200.00px" viewBox="0 0 1024 1024" version="1.1" xmlns="http://www.w3.org/2000/svg"><path fill="#ffffff" d="M302.905798 445.60994l200.763466 0 0 47.567365-200.763466 0 0-47.567365ZM302.905798 359.568309l200.763466 0 0 47.567365-200.763466 0 0-47.567365ZM552.636512 445.60994l200.763466 0 0 47.567365-200.763466 0 0-47.567365ZM512.218988 2.046612c-281.748942 0-510.150886 228.03253-510.150886 509.325078s228.401943 509.325078 510.150886 509.325078 510.150886-228.03253 510.150886-509.325078S793.96793 2.046612 512.218988 2.046612zM302.905798 533.750373l0 16.788361-48.967248 0 0-231.543494 249.729691 0L503.668241 270.728958l-305.692261 0 0-44.769646 305.692261 0 0-58.760289 48.967248 0 0 58.760289 305.692261 0 0 44.769646-305.692261 0 0 48.267307 249.730715 0 0 214.754109L552.636512 533.750373l0 56.311517c58.524928-0.699941 116.350938-1.51347 173.482123-2.448772-8.629541-7.459902-17.258059-14.919804-25.882484-22.384823l37.074384-28.680203c48.967248 40.572044 91.867314 78.346369 128.712477 113.322975L824.052109 683.448814c-17.258059-18.652825-35.096333-36.840046-53.513798-54.562686-121.717156 2.098801-311.173089 6.765077-568.363705 13.990642l-4.197602-51.065026c103.994516 0 205.89023-0.464581 305.692261-1.39886l0-56.661488L302.905798 533.751397zM593.908498 722.621998l-41.971927 33.576723c-23.319102-29.380144-49.436946-59.22487-78.346369-89.539292l37.774325-27.981285C545.870412 669.927869 573.387116 697.909154 593.908498 722.621998zM231.55475 826.151933c-15.389502-8.863878-31.014364-17.488303-46.868447-25.882484 26.111704-39.173185 48.496527-83.708494 67.154469-133.608997l48.967248 19.587104C278.422174 740.810243 255.338433 787.443329 231.55475 826.151933zM703.733812 776.485767c-8.863878 40.572044-40.342824 60.85909-94.435813 60.85909L439.313537 837.344856c-58.760289 0-88.140433-28.915563-88.140433-86.741573l0-82.543971 53.163827 0 0 77.647451c0 28.445866 16.089443 42.670845 48.267307 42.670845l146.899698 0c32.177863 0 50.595328-10.492982 55.262628-31.478945 4.197602-18.187221 7.225565-40.802288 9.094122-67.854411 5.596462 2.333138 22.849404 9.328459 51.764967 20.985964C712.358237 735.213781 708.395996 757.36836 703.733812 776.485767zM828.948629 816.358893c-22.384823-31.713282-51.764967-69.25327-88.140433-112.624057l39.173185-28.680203c25.182542 27.516704 56.19179 63.892169 93.036953 109.126396L828.948629 816.358893zM552.636512 359.568309l200.763466 0 0 47.567365-200.763466 0 0-47.567365Z" /></svg>