<?xml version="1.0" standalone="no"?><!DOCTYPE svg PUBLIC "-//W3C//DTD SVG 1.1//EN" "http://www.w3.org/Graphics/SVG/1.1/DTD/svg11.dtd"><svg width="80" height="80" viewBox="0 0 80 80" version="1.1" xmlns="http://www.w3.org/2000/svg" xmlns:xlink="http://www.w3.org/1999/xlink"><defs><style type="text/css"><![CDATA[
@font-face { font-family: ifont; src: url("//at.alicdn.com/t/font_1442373896_4754455.eot?#iefix") format("embedded-opentype"), url("//at.alicdn.com/t/font_1442373896_4754455.woff") format("woff"), url("//at.alicdn.com/t/font_1442373896_4754455.ttf") format("truetype"), url("//at.alicdn.com/t/font_1442373896_4754455.svg#ifont") format("svg"); }

]]></style></defs><g class="transform-group"><g transform="scale(0.078125, 0.078125)"><path d="M915.531078 639.933741l-64.48057-5.143137 0 246.447948-314.876434 67.712171c-14.716166 3.230578-30.030967 3.230578-44.744064 0.119727l-302.196647-63.526849c-5.383614-1.196245-9.334599-5.861498-9.454326-11.363815l-5.260817-201.465454c-0.119727-6.342452 4.66423-11.727089 10.884908-12.323677l256.736269-22.491247c4.427846-0.358157 8.256034-3.228531 9.931187-7.416923l61.7289-149.782352 0 410.945443 278.988062-52.999075 0-208.641901-164.347069-10.422374c-13.279445-0.842181-25.003464-8.964162-30.461779-21.098527l-85.136006-189.32495-85.539188 192.730513c-1.792832 3.946892-5.503341 6.579859-9.691733 7.05672l-302.552757 30.507828c-9.211802 0.956791-15.911388-8.492418-11.963473-16.987906l80.514755-172.153872c1.673106-3.469008 4.904707-5.980201 8.613168-6.696516l310.331931-56.94699 10.288321-1.912559 10.047844 1.792832 317.03254 57.066717c3.827165 0.716314 7.05672 3.228531 8.731872 6.817266L927.374824 623.065562C931.205059 631.438253 924.62213 640.650055 915.531078 639.933741zM590.473771 222.721571 553.110815 222.721571l0 79.384002c0 8.258081-6.694469 14.95255-14.94948 14.95255l-44.857651 0c-8.255011 0-14.94948-6.694469-14.94948-14.95255l0-79.384002-37.360909 0c-11.510148 0-18.703991-12.4608-12.948917-22.428825l74.734098-129.440048c5.755074-9.968026 20.139689-9.968026 25.89681-0.00307l74.748425 129.443118C609.177761 210.257701 601.983919 222.721571 590.473771 222.721571z" fill="#ddd"></path></g></g></svg>