<?xml version="1.0" encoding="UTF-8"?>
<svg width="2000px" height="489px" viewBox="0 0 2000 489" version="1.1" xmlns="http://www.w3.org/2000/svg" xmlns:xlink="http://www.w3.org/1999/xlink">
    <!-- Generator: Sketch 46.2 (44496) - http://www.bohemiancoding.com/sketch -->
    <title>paypal</title>
    <desc>Created with Sketch.</desc>
    <defs></defs>
    <g id="Page-1" stroke="none" stroke-width="1" fill="none" fill-rule="evenodd">
        <g id="paypal" fill-rule="nonzero">
            <path d="M747.576499,110.267467 L636.976777,110.267467 C629.489083,110.316167 623.105111,115.707076 621.803034,123.080849 L576.956196,406.661233 C576.560818,409.299479 577.342452,411.978389 579.094551,413.990059 C580.84665,416.001728 583.392897,417.143718 586.060442,417.114256 L638.999942,417.114256 C646.487636,417.065556 652.871608,411.674646 654.173685,404.300874 L666.312679,327.757773 C667.484912,320.310091 673.947608,314.852704 681.486421,314.944391 L715.205848,314.944391 C745.968891,318.32248 776.778949,309.007281 800.517275,289.151094 C824.2556,269.294907 838.868388,240.615662 840.979312,209.739778 C846.983878,185.047954 841.668327,158.96467 826.479958,138.591786 C805.11623,117.714976 775.618011,107.347401 745.890527,110.267467 L747.576499,110.267467 Z M759.041104,213.786109 C752.971606,253.575033 722.624122,253.575033 693.28822,253.575033 L678.114478,253.575033 L689.916278,179.392293 C690.589419,174.896845 694.475233,171.586707 699.020523,171.636825 L706.775991,171.636825 C726.670453,171.636825 745.553333,171.636825 755.331967,183.10143 C761.590878,192.023845 763.567147,203.263873 760.727075,213.786109 L759.041104,213.786109 Z M1076.67811,213.786109 L1025.08739,213.786109 C1020.5421,213.735991 1016.65628,217.046129 1015.98314,221.541577 L1013.62278,236.378126 L1010.25084,230.983017 C994.019953,214.313457 970.986741,206.096203 947.869897,208.728195 C887.563288,210.097723 837.355735,255.427971 829.851901,315.281585 C824.352009,343.922256 831.480677,373.543101 849.40917,396.545405 C866.547942,415.424425 891.417174,425.372118 916.848024,423.520947 C944.349705,423.772583 970.768349,412.815542 990.019181,393.173462 L987.658822,408.010011 C987.263443,410.648256 988.045077,413.327166 989.797176,415.338836 C991.549275,417.350505 994.095522,418.492495 996.763067,418.463033 L1044.30746,418.463033 C1051.79515,418.414332 1058.17912,413.023423 1059.4812,405.64965 L1088.14271,224.576326 C1088.55015,221.878161 1087.72586,219.139512 1085.89681,217.114496 C1084.06777,215.08948 1081.42685,213.991649 1078.70128,214.123303 L1076.67811,213.786109 Z M1002.83256,316.630363 C998.798104,345.770761 973.916253,367.488446 944.497954,367.546698 C931.080943,369.022914 917.802189,363.767884 909.028941,353.509933 C900.255694,343.251983 897.123572,329.318912 900.662698,316.293168 C904.154021,285.652424 930.53177,262.791709 961.357668,263.690861 C974.159817,263.448825 986.446089,268.731922 995.077095,278.190215 C1003.36088,288.641981 1006.68438,302.182145 1004.18134,315.281585 L1002.83256,316.630363 Z M1359.58411,212.437332 L1306.6446,212.437332 C1301.5219,212.431469 1296.72666,214.955276 1293.83122,219.181218 L1220.32287,327.083385 L1189.301,223.227548 C1187.3616,216.644718 1181.327,212.118767 1174.46445,212.100138 L1122.53653,212.100138 C1119.54871,212.039693 1116.72146,213.449408 1114.97176,215.872071 C1113.22206,218.294734 1112.77272,221.421823 1113.76948,224.239131 L1172.44128,396.208211 L1117.47862,473.762894 C1115.43478,476.540731 1115.13597,480.234951 1116.70678,483.305163 C1118.27758,486.375375 1121.44833,488.294475 1124.89689,488.262248 L1178.17359,488.262248 C1183.1767,488.158453 1187.8224,485.647263 1190.64977,481.518362 L1365.9908,226.936685 C1368.03463,224.158848 1368.33344,220.464628 1366.76264,217.394416 C1365.19183,214.324204 1362.02109,212.405105 1358.57252,212.437332 L1359.58411,212.437332 Z" id="Shape" fill="#223A7A"></path>
            <path d="M1534.58793,110.267467 L1425.33699,110.267467 C1417.79818,110.175779 1411.33548,115.633166 1410.16325,123.080849 L1365.9908,406.661233 C1365.59542,409.299479 1366.37705,411.978389 1368.12915,413.990059 C1369.88125,416.001728 1372.4275,417.143718 1375.09504,417.114256 L1431.74368,417.114256 C1437.02855,417.158413 1441.51494,413.250912 1442.1967,408.010011 L1455.01008,327.757773 C1456.18232,320.310091 1462.64501,314.852703 1470.18383,314.944391 L1503.90325,314.944391 C1534.6663,318.32248 1565.47635,309.007281 1589.21468,289.151094 C1612.95301,269.294907 1627.56579,240.615662 1629.67672,209.739778 C1635.93205,184.993741 1630.73214,158.74656 1615.51456,138.254592 C1594.01233,117.405325 1564.37649,107.156263 1534.58793,110.267467 L1534.58793,110.267467 Z M1547.40132,213.786109 C1541.33182,253.575033 1510.98433,253.575033 1481.64843,253.575033 L1467.14908,253.575033 L1478.95088,179.392293 C1479.62402,174.896845 1483.50983,171.586707 1488.05512,171.636825 L1495.81059,171.636825 C1515.70505,171.636825 1534.58793,171.636825 1544.36657,183.10143 C1550.62548,192.023845 1552.60175,203.263873 1549.76168,213.786109 L1547.40132,213.786109 Z M1865.03832,213.786109 L1813.4476,213.786109 C1808.90231,213.735991 1805.01649,217.046129 1804.34335,221.541577 L1801.98299,236.378126 L1798.27385,230.983017 C1782.52356,214.11429 1759.89923,205.412624 1736.9045,207.379417 C1676.59789,208.748946 1626.39033,254.079194 1618.8865,313.932808 C1612.62418,342.185345 1618.76148,371.767134 1635.74622,395.196628 C1652.88499,414.075649 1677.75422,424.023342 1703.18507,422.17217 C1730.68675,422.423806 1757.1054,411.466765 1776.35623,391.824685 L1773.99587,406.661233 C1773.60049,409.299479 1774.38212,411.978389 1776.13422,413.990059 C1777.88632,416.001728 1780.43257,417.143718 1783.10011,417.114256 L1830.64451,417.114256 C1838.18332,417.205944 1844.64601,411.748557 1845.81825,404.300874 L1874.47976,223.227548 C1874.87514,220.589303 1874.09351,217.910392 1872.34141,215.898723 C1870.58931,213.887053 1868.04306,212.745064 1865.37552,212.774526 L1865.03832,213.786109 Z M1791.19278,316.630363 C1787.14087,345.897848 1762.0674,367.657009 1732.52097,367.546698 C1719.10396,369.022914 1705.82521,363.767883 1697.05196,353.509933 C1688.27871,343.251982 1685.14659,329.318912 1688.68572,316.293168 C1692.90992,286.845426 1718.28426,265.075399 1748.03191,265.376833 C1760.83406,265.134796 1773.12033,270.417893 1781.75134,279.876187 C1790.07675,290.307519 1793.40498,303.866953 1790.85558,316.967557 L1791.19278,316.630363 Z M1926.07048,119.034518 L1880.54926,407.672816 C1880.15388,410.311062 1880.93551,412.989972 1882.68761,415.001641 C1884.43971,417.013311 1886.98596,418.155301 1889.6535,418.125839 L1939.22106,418.125839 C1946.75987,418.217527 1953.22257,412.760139 1954.3948,405.312456 L1999.24164,122.069267 C1999.63702,119.431021 1998.85539,116.75211 1997.10329,114.740441 C1995.35119,112.728771 1992.80494,111.586782 1990.1374,111.616244 L1939.22106,111.616244 C1934.67577,111.566126 1930.78996,114.876264 1930.11682,119.371712 L1926.07048,119.034518 Z" id="Shape" fill="#2391C8"></path>
            <path d="M118.371984,472.414117 L126.801841,418.800227 L17.2137017,418.800227 L80.269031,21.9225672 C80.4553863,20.7437565 81.0525772,19.6688131 81.9550024,18.8878191 C83.0458965,18.5021298 84.2360513,18.5021298 85.3269454,18.8878191 L237.064368,18.8878191 C274.274277,14.4455809 311.654958,25.6842172 340.245816,49.9096919 C348.272911,58.6974174 353.955463,69.3666984 356.768335,80.9315648 C359.523996,95.0731295 359.523996,109.613673 356.768335,123.755238 L356.768335,135.894231 L365.535386,140.614951 C372.02142,143.9135 377.849582,148.370329 382.732294,153.765528 C390.362897,162.643948 395.279019,173.529648 396.894454,185.124596 C398.853442,200.301336 398.168936,215.70271 394.871289,230.645822 C391.700329,248.780776 385.42655,266.233288 376.325603,282.236546 C368.95994,295.46916 358.84125,306.967671 346.652507,315.955974 C334.595953,324.299596 321.109123,330.35724 306.863583,333.827271 C290.649029,337.821348 273.994202,339.747416 257.296024,339.559573 L245.157031,339.559573 C228.170739,340.172171 214.01663,352.769327 211.437603,369.569863 L211.437603,374.290583 L196.601055,469.042174 L196.601055,472.414117 C196.832469,473.068653 196.832469,473.782746 196.601055,474.437282 L118.371984,472.414117 Z" id="Shape" fill="#223A7A"></path>
            <path d="M373.290855,125.104015 L373.290855,133.871066 C353.396393,235.029348 284.945955,271.783524 197.612638,271.783524 L152.091412,271.783524 C141.501959,271.818929 132.502724,279.532558 130.848172,289.992015 L107.244573,434.985553 L100.837882,475.786059 C100.352288,479.048312 101.295182,482.361672 103.425626,484.879469 C105.55607,487.397266 108.667662,488.875574 111.965293,488.936637 L191.205947,488.936637 C200.556032,489.05806 208.586796,482.317955 210.088826,473.088505 L210.088826,469.042174 L224.925374,374.627778 L224.925374,369.569863 C226.276392,360.206223 234.348148,353.287575 243.808253,353.384538 L255.610053,353.384538 C332.153153,353.384538 390.487762,322.362665 409.370642,232.668988 C419.17172,201.73355 413.797257,167.986924 394.871289,141.626535 C388.736047,134.859441 381.424216,129.261319 373.290855,125.104015 L373.290855,125.104015 Z" id="Shape" fill="#2391C8"></path>
            <path d="M352.38481,116.674158 L342.94337,114.313798 L332.827542,112.290632 C319.881519,110.355698 306.802088,109.453669 293.713007,109.593078 L174.683428,109.593078 C165.223323,109.496116 157.151566,116.414764 155.800548,125.778403 L130.510978,285.945684 L130.510978,290.666403 C132.033129,279.945941 141.263961,272.013195 152.091412,272.120718 L195.926667,272.120718 C283.259984,272.120718 351.710421,236.715319 371.604883,134.20826 L371.604883,125.441209 C366.294987,122.736623 360.768224,120.480801 355.082364,118.697324 L352.38481,116.674158 Z" id="Shape" fill="#1F2C62"></path>
            <path d="M156.137742,125.441209 C157.639773,116.21176 165.670537,109.471654 175.020622,109.593078 L293.713007,109.593078 C306.802046,109.455092 319.881365,110.357114 332.827542,112.290632 L342.94337,114.313798 L352.38481,116.674158 L356.768335,116.674158 C362.462101,118.573765 367.988543,120.94224 373.290855,123.755238 C381.041422,93.1374864 373.363581,60.6639953 352.722004,36.7591149 C320.803327,9.32753188 278.869193,-3.50944772 237.064368,1.35371638 L84.6525566,1.35371638 C74.0631036,1.38912144 65.0638692,9.10275073 63.409317,19.562207 L0.691182559,419.81181 C0.104701386,423.576195 1.17956458,427.409915 3.63757238,430.320713 C6.09558019,433.231512 9.69512661,434.933278 13.5045648,434.985553 L107.244573,434.985553 L130.848172,285.945684 L156.137742,125.441209 Z" id="Shape" fill="#223A7A"></path>
        </g>
    </g>
</svg>