<?xml version="1.0" encoding="UTF-8"?>
<svg width="1992px" height="575px" viewBox="0 0 1992 575" version="1.1" xmlns="http://www.w3.org/2000/svg" xmlns:xlink="http://www.w3.org/1999/xlink">
    <!-- Generator: Sketch 46.2 (44496) - http://www.bohemiancoding.com/sketch -->
    <title>未标题-1</title>
    <desc>Created with Sketch.</desc>
    <defs></defs>
    <g id="Page-1" stroke="none" stroke-width="1" fill="none" fill-rule="evenodd">
        <g id="未标题-1" transform="translate(-3.000000, -3.000000)">
            <path d="M896.045198,291.525424 C896.045198,185.310734 831.638418,113.559322 735.59322,113.559322 C639.548023,113.559322 575.141243,185.310734 575.141243,291.525424 C575.141243,397.740113 639.548023,469.491525 735.59322,469.491525 L735.59322,469.491525 C771.751412,469.491525 803.389831,459.322034 828.813559,441.242938 L844.067797,460.451977 L880.225989,460.451977 C881.920904,460.451977 882.485876,458.757062 881.920904,457.627119 L852.542373,419.774011 C879.661017,388.135593 895.480226,344.067797 896.045198,291.525424 L896.045198,291.525424 L896.045198,291.525424 L896.045198,291.525424 Z M831.073446,393.220339 L798.870056,353.107345 L762.711864,353.107345 C761.016949,353.107345 760.451977,354.80226 761.581921,355.932203 L807.909605,414.689266 C788.135593,428.248588 763.276836,435.59322 735.59322,435.59322 C657.627119,435.59322 606.779661,379.096045 606.779661,292.090395 C606.779661,205.084746 657.062147,148.587571 735.59322,148.587571 C813.559322,148.587571 864.40678,205.084746 864.40678,292.090395 L864.40678,292.090395 C863.841808,333.333333 851.977401,368.361582 831.073446,393.220339 L831.073446,393.220339 Z" id="Shape" fill="#040000" fill-rule="nonzero"></path>
            <path d="M1248.0226,291.525424 C1248.0226,185.310734 1183.61582,113.559322 1087.57062,113.559322 C991.525424,113.559322 927.118644,185.310734 927.118644,291.525424 C927.118644,397.740113 991.525424,469.491525 1087.57062,469.491525 L1087.57062,469.491525 C1123.72881,469.491525 1155.36723,459.322034 1180.79096,441.242938 L1196.0452,460.451977 L1232.20339,460.451977 C1233.89831,460.451977 1234.46328,458.757062 1233.89831,457.627119 L1204.51977,419.774011 C1231.63842,388.135593 1248.0226,344.067797 1248.0226,291.525424 L1248.0226,291.525424 L1248.0226,291.525424 L1248.0226,291.525424 Z M1183.05085,393.220339 L1150.84746,353.107345 L1114.12429,353.107345 C1112.42938,353.107345 1111.86441,354.80226 1112.99435,355.932203 L1159.32203,414.689266 C1139.54802,428.248588 1114.68927,435.59322 1087.00565,435.59322 C1009.03955,435.59322 958.19209,379.096045 958.19209,292.090395 C958.19209,205.084746 1008.47458,148.587571 1087.00565,148.587571 C1164.97175,148.587571 1215.81921,205.084746 1215.81921,292.090395 L1215.81921,292.090395 C1215.81921,333.333333 1203.9548,368.361582 1183.05085,393.220339 L1183.05085,393.220339 Z" id="Shape" fill="#040000" fill-rule="nonzero"></path>
            <path d="M1746.32768,429.378531 L1746.32768,342.372881 L1887.57062,342.372881 L1887.57062,220.903955 L1724.29379,220.903955 C1732.20339,207.344633 1740.11299,193.785311 1748.58757,179.096045 L1938.41808,179.096045 L1938.41808,369.491525 L1891.52542,369.491525 C1890.39548,369.491525 1889.26554,370.621469 1889.83051,371.751412 C1890.39548,372.881356 1897.74011,398.870056 1897.74011,398.870056 L1973.44633,398.870056 L1973.44633,146.892655 L1766.66667,146.892655 C1772.88136,135.59322 1779.09605,124.293785 1785.87571,112.99435 C1786.44068,111.864407 1785.31073,110.169492 1784.18079,110.169492 L1746.89266,110.169492 C1711.86441,172.316384 1681.9209,223.728814 1653.10734,270.621469 C1652.54237,271.751412 1653.10734,273.446328 1654.80226,273.446328 L1692.65537,273.446328 C1698.30508,263.841808 1704.51977,253.672316 1710.73446,243.502825 L1710.73446,461.016949 L1711.29944,461.016949 L1994.91525,461.016949 L1994.91525,429.378531 L1746.32768,429.378531 Z M1746.32768,250.282486 L1852.54237,250.282486 L1852.54237,312.99435 L1746.32768,312.99435 L1746.32768,250.282486 Z" id="Shape" fill="#040000" fill-rule="nonzero"></path>
            <path d="M1377.9661,114.689266 C1378.53107,113.559322 1377.40113,112.429379 1376.27119,112.429379 L1344.63277,112.429379 C1329.37853,154.237288 1312.99435,194.350282 1294.91525,237.853107 C1294.35028,238.983051 1295.48023,240.112994 1296.61017,240.112994 L1323.72881,240.112994 L1323.72881,258.19209 L1353.67232,258.19209 L1353.67232,307.909605 L1310.73446,307.909605 L1310.73446,337.288136 L1353.67232,337.288136 L1353.67232,429.943503 C1341.24294,438.418079 1331.63842,444.632768 1331.63842,444.632768 L1348.0226,468.926554 L1428.81356,415.819209 L1428.81356,384.180791 C1428.81356,382.485876 1427.11864,381.920904 1425.9887,382.485876 C1425.42373,383.050847 1406.77966,395.480226 1385.87571,409.039548 L1385.87571,337.853107 L1428.81356,337.853107 L1428.81356,308.474576 L1385.87571,308.474576 L1385.87571,258.757062 L1420.90395,258.757062 L1420.90395,229.378531 L1333.33333,229.378531 C1338.98305,215.254237 1344.63277,201.129944 1350.28249,187.00565 L1428.24859,187.00565 L1428.24859,157.627119 L1361.58192,157.627119 C1367.23164,143.502825 1372.31638,129.378531 1377.9661,114.689266" id="Shape" fill="#040000" fill-rule="nonzero"></path>
            <path d="M1593.22034,164.40678 L1593.22034,135.59322 C1593.22034,135.59322 1533.33333,114.689266 1532.20339,114.124294 C1531.07345,113.559322 1529.9435,114.689266 1529.9435,115.819209 L1529.9435,144.632768 C1529.9435,144.632768 1589.83051,165.536723 1590.96045,166.101695 C1592.0904,166.666667 1593.22034,165.536723 1593.22034,164.40678" id="Shape" fill="#040000" fill-rule="nonzero"></path>
            <path d="M1634.46328,396.045198 L1601.12994,396.045198 L1587.00565,422.59887 C1575.14124,411.864407 1564.97175,398.305085 1555.9322,382.485876 C1577.40113,368.926554 1597.74011,354.80226 1618.0791,341.242938 L1618.0791,309.039548 C1618.0791,307.909605 1616.38418,306.779661 1615.25424,307.344633 C1592.0904,323.163842 1568.36158,339.548023 1543.50282,355.367232 C1536.15819,336.723164 1530.50847,316.384181 1525.42373,294.915254 C1572.88136,287.570621 1621.46893,280.225989 1621.46893,280.225989 L1621.46893,252.542373 C1621.46893,251.412429 1620.33898,250.847458 1619.20904,250.847458 C1618.0791,250.847458 1567.79661,258.757062 1519.77401,265.536723 C1516.94915,249.152542 1514.68927,232.20339 1512.99435,215.254237 C1559.88701,210.169492 1610.73446,204.519774 1610.73446,204.519774 L1610.73446,176.836158 C1610.73446,175.706215 1609.60452,175.141243 1608.47458,175.141243 C1607.9096,175.141243 1556.49718,180.79096 1510.16949,185.875706 C1507.9096,159.322034 1506.77966,133.333333 1506.21469,108.474576 L1474.57627,108.474576 C1475.14124,135.028249 1476.83616,162.146893 1478.53107,189.265537 C1453.67232,192.090395 1435.02825,193.785311 1435.02825,193.785311 L1435.02825,221.468927 C1435.02825,222.59887 1436.15819,223.163842 1436.72316,223.163842 C1437.28814,223.163842 1455.9322,220.903955 1481.35593,218.079096 C1483.05085,235.59322 1485.31073,252.542373 1488.13559,269.491525 C1458.19209,274.011299 1434.46328,277.40113 1434.46328,277.40113 L1434.46328,305.084746 C1434.46328,306.214689 1435.59322,306.779661 1436.72316,306.779661 C1437.28814,306.779661 1462.14689,302.824859 1493.78531,298.305085 C1499.43503,324.293785 1506.77966,349.152542 1516.38418,371.186441 C1490.39548,387.570621 1463.84181,403.389831 1436.72316,419.774011 L1436.72316,450.847458 C1436.72316,451.977401 1437.85311,453.107345 1439.54802,452.542373 C1470.0565,434.463277 1500,416.384181 1528.81356,398.305085 C1541.24294,420.338983 1556.49718,439.548023 1575.14124,453.107345 L1575.14124,453.107345 C1575.14124,453.107345 1575.70621,453.107345 1575.70621,453.672316 C1575.70621,453.672316 1575.70621,453.672316 1575.70621,453.672316 C1583.61582,459.322034 1593.78531,465.536723 1597.17514,467.231638 C1597.74011,467.79661 1598.87006,467.231638 1599.43503,466.666667 C1600,466.101695 1628.81356,410.734463 1635.59322,397.740113 C1636.72316,397.175141 1636.15819,396.045198 1634.46328,396.045198" id="Shape" fill="#040000" fill-rule="nonzero"></path>
            <path d="M244.067797,570.621469 C194.350282,570.621469 148.022599,553.672316 118.644068,528.813559 C103.389831,533.333333 84.7457627,540.677966 72.3163842,549.717514 C62.1468927,557.627119 63.2768362,564.971751 64.9717514,568.361582 C73.4463277,581.920904 205.649718,577.40113 244.067797,572.881356 L244.067797,570.621469 Z" id="Shape" fill="#EEA818" fill-rule="nonzero"></path>
            <path d="M244.067797,570.621469 C293.785311,570.621469 340.112994,553.672316 369.491525,528.813559 C384.745763,533.333333 403.954802,540.677966 415.819209,549.717514 C425.988701,557.627119 424.858757,564.971751 423.163842,568.361582 C414.689266,581.920904 282.485876,577.40113 244.067797,572.881356 L244.067797,570.621469 Z" id="Shape" fill="#EEA818" fill-rule="nonzero"></path>
            <path d="M244.632768,271.186441 C327.118644,270.621469 393.220339,254.80226 415.819209,248.587571 C420.903955,246.892655 424.293785,244.632768 424.293785,244.632768 C424.293785,244.067797 424.858757,231.073446 424.858757,224.858757 C424.858757,114.689266 372.881356,3.95480226 245.19774,3.95480226 C117.514124,3.95480226 65.5367232,114.689266 65.5367232,224.858757 C65.5367232,231.638418 66.1016949,244.067797 66.1016949,244.632768 C66.1016949,244.632768 68.3615819,246.892655 72.8813559,248.022599 C93.7853107,253.672316 161.016949,270.621469 245.762712,271.186441 L244.632768,271.186441 L244.632768,271.186441 Z" id="Shape" fill="#040000" fill-rule="nonzero"></path>
            <path d="M468.926554,362.711864 C463.841808,346.327684 457.062147,327.118644 449.717514,308.474576 C449.717514,308.474576 445.762712,307.909605 443.502825,308.474576 C380.225989,327.118644 303.389831,338.418079 244.632768,337.853107 L244.067797,337.853107 C185.875706,338.418079 109.60452,327.118644 46.3276836,308.474576 C44.0677966,307.909605 38.9830508,307.909605 38.9830508,307.909605 C31.6384181,326.553672 24.8587571,345.762712 19.7740113,362.146893 C-4.51977401,440.677966 3.38983051,472.881356 9.03954802,474.011299 C22.0338983,475.706215 59.3220339,414.689266 59.3220339,414.689266 C59.3220339,476.271186 114.689266,571.186441 242.372881,571.751412 L245.762712,571.751412 C373.446328,570.621469 428.813559,476.271186 428.813559,414.689266 C428.813559,414.689266 466.101695,475.141243 479.096045,474.011299 C485.310734,474.011299 493.220339,441.242938 468.926554,362.711864" id="Shape" fill="#040000" fill-rule="nonzero"></path>
            <path d="M198.870056,166.101695 C181.355932,166.666667 166.666667,146.892655 165.536723,122.033898 C164.40678,97.1751412 177.966102,75.7062147 195.480226,75.1412429 C212.99435,74.5762712 227.683616,94.3502825 228.813559,119.20904 C229.378531,144.632768 215.819209,165.536723 198.870056,166.101695" id="Shape" fill="#FFFFFF" fill-rule="nonzero"></path>
            <path d="M322.59887,122.033898 C321.468927,146.892655 306.779661,166.666667 289.265537,166.101695 C271.751412,165.536723 258.757062,144.067797 259.322034,119.20904 C260.451977,94.3502825 275.141243,74.5762712 292.655367,75.1412429 C310.169492,76.2711864 323.728814,97.1751412 322.59887,122.033898" id="Shape" fill="#FFFFFF" fill-rule="nonzero"></path>
            <path d="M353.672316,201.694915 C349.152542,191.525424 302.259887,180.225989 244.632768,180.225989 L244.067797,180.225989 C186.440678,180.225989 139.548023,191.525424 135.028249,201.694915 C135.028249,202.259887 134.463277,202.824859 134.463277,203.389831 C134.463277,203.954802 134.463277,204.519774 135.028249,205.084746 C138.983051,210.734463 190.960452,238.983051 244.067797,238.983051 L244.632768,238.983051 C297.740113,238.983051 349.717514,210.734463 353.672316,205.084746 C354.237288,204.519774 354.237288,203.954802 354.237288,202.824859 C353.672316,202.824859 353.672316,202.259887 353.672316,201.694915" id="Shape" fill="#EEA818" fill-rule="nonzero"></path>
            <path d="M219.774011,122.59887 C220.338983,132.768362 215.254237,141.242938 207.909605,142.372881 C200.564972,143.502825 193.785311,136.158192 192.655367,125.988701 C192.090395,115.819209 197.175141,107.344633 204.519774,106.214689 C212.429379,105.649718 219.20904,112.99435 219.774011,122.59887" id="Shape" fill="#040000" fill-rule="nonzero"></path>
            <path d="M267.79661,125.988701 C269.491525,123.163842 279.661017,109.039548 301.129944,114.124294 C306.779661,115.254237 309.60452,117.514124 310.169492,118.079096 C310.734463,119.20904 311.299435,120.903955 310.169492,123.163842 C308.474576,127.683616 305.084746,127.683616 303.389831,126.553672 C302.259887,125.988701 287.00565,115.819209 273.446328,131.073446 C272.316384,132.20339 270.621469,132.20339 268.926554,131.073446 C267.231638,129.943503 266.666667,127.683616 267.79661,125.988701" id="Shape" fill="#040000"></path>
            <path d="M244.632768,335.028249 L244.067797,335.028249 C203.954802,335.59322 155.932203,330.508475 109.039548,320.903955 C105.084746,344.067797 102.824859,373.446328 104.519774,407.909605 C109.60452,496.045198 162.146893,550.847458 242.372881,551.977401 L244.067797,551.977401 L245.762712,551.977401 C326.553672,551.412429 378.531073,496.045198 383.615819,407.909605 C385.875706,372.881356 383.050847,344.067797 379.096045,320.903955 C332.768362,329.943503 284.180791,335.59322 244.632768,335.028249" id="Shape" fill="#FFFFFF" fill-rule="nonzero"></path>
            <path d="M131.073446,327.683616 L131.073446,414.124294 C131.073446,414.124294 170.621469,422.033898 210.169492,416.384181 L210.169492,336.723164 C185.310734,335.028249 158.19209,332.20339 131.073446,327.683616" id="Shape" fill="#DB2329" fill-rule="nonzero"></path>
            <path d="M423.728814,244.632768 C423.728814,244.632768 346.892655,268.926554 244.632768,269.491525 L244.067797,269.491525 C141.80791,268.926554 64.9717514,244.632768 64.9717514,244.632768 L38.9830508,309.039548 C103.389831,328.248588 183.615819,341.242938 244.067797,340.112994 L244.632768,340.112994 C305.084746,340.677966 385.310734,328.248588 449.717514,309.039548 L423.728814,244.632768 Z" id="Shape" fill="#DB2329" fill-rule="nonzero"></path>
        </g>
    </g>
</svg>