<?xml version="1.0" standalone="no"?><!DOCTYPE svg PUBLIC "-//W3C//DTD SVG 1.1//EN" "http://www.w3.org/Graphics/SVG/1.1/DTD/svg11.dtd"><svg width="80" height="80" viewBox="0 0 80 80" version="1.1" xmlns="http://www.w3.org/2000/svg" xmlns:xlink="http://www.w3.org/1999/xlink"><defs><style type="text/css"><![CDATA[
@font-face { font-family: ifont; src: url("//at.alicdn.com/t/font_1442373896_4754455.eot?#iefix") format("embedded-opentype"), url("//at.alicdn.com/t/font_1442373896_4754455.woff") format("woff"), url("//at.alicdn.com/t/font_1442373896_4754455.ttf") format("truetype"), url("//at.alicdn.com/t/font_1442373896_4754455.svg#ifont") format("svg"); }

]]></style></defs><g class="transform-group"><g transform="scale(0.078125, 0.078125)"><path d="M643.285 476.019l-12.961 4.479c-29.557-42.631-75.361-67.071-125.93-67.141-50.132-0.084-97.555 25.242-126.879 67.748-1.58 2.323-2.221 5.259-1.701 8.062 0.495 2.8 2.103 5.315 4.389 6.855l24.339 16.533c1.625 1.104 3.509 1.692 5.436 1.697 3.175 0.003 6.19-1.578 8.07-4.251 20.423-28.891 51.868-45.432 86.262-45.387 28.579 0.071 55.985 12.066 75.877 33.104l-7.803 2.688c-3.379 1.17-5.934 4.164-6.692 7.813-0.714 3.661 0.478 7.465 3.137 9.957l55.637 52.009c1.82 1.706 4.194 2.661 6.643 2.663 1.089-0.01 2.152-0.17 3.165-0.529 3.379-1.172 5.934-4.169 6.664-7.791l15.266-76.4c0.741-3.66-0.463-7.478-3.121-9.942C650.461 475.706 646.633 474.874 643.285 476.019zM643.621 634.743l-24.352-16.522c-1.611-1.115-3.484-1.691-5.435-1.693-3.165-0.018-6.178 1.586-8.069 4.248-20.438 28.906-51.871 45.432-86.25 45.375-28.591-0.035-56-12.055-75.88-33.105l7.805-2.688c3.392-1.154 5.946-4.15 6.667-7.813 0.74-3.638-0.452-7.438-3.122-9.944l-55.623-51.998c-2.634-2.469-6.495-3.285-9.799-2.141-3.389 1.157-5.958 4.143-6.688 7.814l-15.278 76.386c-0.706 3.646 0.488 7.452 3.134 9.958 2.633 2.44 6.458 3.271 9.809 2.127l12.961-4.457c29.569 42.619 75.336 67.048 125.942 67.13 50.105 0.084 97.554-25.242 126.865-67.763 1.591-2.308 2.213-5.245 1.713-8.045C647.514 638.795 645.922 636.295 643.621 634.743zM831.125 168.551l-637.129-1.052c-24.002-0.04-43.554 20.345-43.592 45.421l-0.973 596.964c-0.048 25.083 19.439 45.525 43.436 45.573l637.14 1.043c23.989 0.051 43.537-20.331 43.591-45.42l0.972-596.942C874.61 189.036 855.117 168.578 831.125 168.551zM699.797 244.756c0.019-9.302 7.227-16.79 16.092-16.789l16.078 0.027c8.863 0.026 16.051 7.541 16.036 16.84l-0.032 19.053c-0.004 9.263-7.216 16.777-16.094 16.764l-16.074-0.027c-8.878-0.015-16.055-7.542-16.039-16.817L699.797 244.756zM625.088 244.632c0.002-9.289 7.217-16.803 16.082-16.774l16.064 0.013c8.871 0.016 16.063 7.55 16.048 16.829l-0.033 19.053c-0.015 9.276-7.227 16.789-16.092 16.764l-16.065-0.016c-8.887-0.027-16.063-7.55-16.049-16.828L625.088 244.632zM821.393 801.877l-619.729-1.02 0.778-470.61 619.718 1.035-0.78 470.587L821.393 801.877zM822.693 263.999c-0.017 9.275-7.229 16.79-16.093 16.79l-16.075-0.053c-8.877 0.011-16.055-7.538-16.04-16.817l0.021-19.039c0.03-9.29 7.229-16.792 16.104-16.802l16.067 0.04c8.873 0.016 16.063 7.553 16.035 16.84L822.693 263.999z" fill="#ddd"></path></g></g></svg>