<?xml version="1.0" encoding="UTF-8"?>
<svg width="1994px" height="445px" viewBox="0 0 1994 445" version="1.1" xmlns="http://www.w3.org/2000/svg" xmlns:xlink="http://www.w3.org/1999/xlink">
    <!-- Generator: Sketch 46.2 (44496) - http://www.bohemiancoding.com/sketch -->
    <title>WePay</title>
    <desc>Created with Sketch.</desc>
    <defs></defs>
    <g id="Page-1" stroke="none" stroke-width="1" fill="none" fill-rule="evenodd">
        <g id="WePay" transform="translate(-4.000000, -1.000000)" fill-rule="nonzero">
            <path d="M187.755102,281.632653 C185.422741,282.798834 183.090379,283.381924 180.174927,283.381924 C173.760933,283.381924 168.51312,279.883382 165.597668,274.635569 L164.431487,272.303207 L118.367347,172.011662 C117.784257,170.845481 117.784257,169.6793 117.784257,168.51312 C117.784257,163.848397 121.282799,160.349854 125.947522,160.349854 C127.696793,160.349854 129.446064,160.932945 131.195335,162.099125 L185.422741,200.58309 C189.504373,202.915452 194.169096,204.664723 199.41691,204.664723 C202.332362,204.664723 205.247813,204.081633 208.163265,202.915452 L462.390671,89.7959184 C416.909621,36.1516035 341.690962,1.16618076 256.559767,1.16618076 C117.784257,1.16618076 4.66472303,95.0437318 4.66472303,211.078717 C4.66472303,274.052478 38.483965,331.195335 91.5451895,369.6793 C95.6268222,372.594752 98.5422741,377.842566 98.5422741,383.090379 C98.5422741,384.83965 97.9591837,386.588921 97.3760933,388.338192 C93.2944606,404.081633 86.2973761,429.737609 86.2973761,430.90379 C85.7142857,432.653061 85.1311953,434.985423 85.1311953,437.317784 C85.1311953,441.982507 88.6297376,445.48105 93.2944606,445.48105 C95.0437318,445.48105 96.7930029,444.897959 97.9591837,443.731778 L152.769679,411.661808 C156.851312,409.329446 161.516035,407.580175 166.180758,407.580175 C168.51312,407.580175 171.428571,408.163265 173.760933,408.746356 C199.41691,416.326531 227.405248,420.408163 255.976676,420.408163 C394.752187,420.408163 507.87172,326.530612 507.87172,210.495627 C507.87172,175.510204 497.376093,142.274052 479.300292,113.119534 L189.504373,280.466472 L187.755102,281.632653 Z" id="XMLID_81_" fill="#09BB07"></path>
            <rect id="XMLID_80_" fill="#494949" x="1113.70262" y="149.854227" width="188.921283" height="16.909621"></rect>
            <rect id="XMLID_79_" fill="#494949" x="1113.70262" y="202.915452" width="188.921283" height="18.0758017"></rect>
            <path d="M1297.95918,359.183673 L1297.95918,257.142857 L1118.95044,257.142857 L1118.95044,359.183673 L1297.95918,359.183673 Z M1137.02624,274.052478 L1279.88338,274.052478 L1279.88338,342.274052 L1137.02624,342.274052 L1137.02624,274.052478 Z" id="XMLID_76_" fill="#494949"></path>
            <path d="M1061.80758,369.6793 L1061.80758,134.693878 C1072.30321,111.370262 1082.21574,86.8804665 1089.79592,61.8075802 L1072.8863,51.8950437 C1055.97668,110.787172 1032.06997,163.848397 1001.16618,208.746356 L1011.07872,226.239067 C1021.57434,210.495627 1032.65306,191.836735 1043.73178,172.594752 L1043.73178,370.262391 L1061.80758,370.262391 L1061.80758,369.6793 Z" id="XMLID_75_" fill="#494949"></path>
            <path d="M1748.10496,369.6793 L1748.10496,134.693878 C1758.60058,111.370262 1768.51312,86.8804665 1776.09329,61.8075802 L1759.18367,51.8950437 C1742.27405,110.787172 1718.36735,163.848397 1687.46356,208.746356 L1697.37609,226.239067 C1707.87172,210.495627 1718.95044,191.836735 1730.02915,172.594752 L1730.02915,370.262391 L1748.10496,370.262391 L1748.10496,369.6793 Z" id="XMLID_74_" fill="#494949"></path>
            <path d="M1322.44898,95.6268222 L1211.66181,95.6268222 L1223.32362,88.6297376 L1223.90671,88.6297376 L1223.90671,88.0466472 C1222.74052,85.1311953 1219.24198,77.5510204 1215.16035,69.3877551 C1211.66181,61.8075802 1208.16327,54.8104956 1206.41399,50.728863 L1206.41399,50.1457726 L1189.50437,60.058309 L1189.50437,60.6413994 C1195.33528,71.7201166 1200.58309,82.2157434 1205.24781,92.1282799 C1205.8309,93.2944606 1206.41399,94.4606414 1206.41399,95.0437318 L1095.62682,95.0437318 L1095.62682,113.119534 L1322.44898,113.119534 L1322.44898,95.6268222 L1322.44898,95.6268222 Z" id="XMLID_73_" fill="#494949"></path>
            <polygon id="XMLID_72_" fill="#494949" points="835.568513 81.6326531 818.075802 81.6326531 818.075802 141.107872 786.588921 141.107872 786.588921 56.5597668 769.6793 56.5597668 769.6793 141.107872 736.443149 141.107872 736.443149 81.6326531 718.950437 81.6326531 718.950437 158.600583 835.568513 158.600583"></polygon>
            <rect id="XMLID_71_" fill="#494949" x="724.781341" y="191.836735" width="102.623907" height="16.909621"></rect>
            <path d="M746.938776,274.052478 L746.938776,258.892128 L798.833819,258.892128 L798.833819,296.793003 C798.250729,310.204082 797.667638,313.702624 793.002915,320.116618 L793.002915,320.116618 L803.498542,338.19242 L804.081633,337.609329 C813.411079,330.029155 828.571429,317.201166 850.145773,297.959184 L850.728863,297.959184 L842.565598,283.965015 L841.982507,283.381924 L815.74344,305.539359 L815.74344,241.982507 L728.862974,241.982507 L728.862974,267.638484 C731.195335,302.623907 722.44898,327.696793 702.623907,342.274052 L702.040816,342.274052 L711.370262,358.600583 L711.953353,359.183673 L712.536443,358.600583 C737.026239,338.77551 748.688047,310.204082 746.938776,274.052478 Z" id="XMLID_70_" fill="#494949"></path>
            <path d="M635.568513,137.026239 L646.06414,154.51895 C672.303207,128.279883 695.043732,96.7930029 711.370262,62.3906706 L695.626822,53.0612245 C679.300292,86.8804665 658.309038,115.451895 635.568513,137.026239 Z" id="XMLID_69_" fill="#494949"></path>
            <path d="M630.90379,243.148688 L640.233236,259.475219 L640.816327,260.058309 L641.399417,259.475219 C651.311953,247.813411 661.22449,235.568513 670.553936,222.740525 L670.553936,369.6793 L687.463557,369.6793 L687.463557,194.752187 C695.043732,181.341108 702.623907,166.180758 709.620991,149.271137 L709.620991,148.688047 L693.294461,139.358601 L693.294461,139.941691 C676.96793,179.591837 656.559767,213.994169 630.90379,243.148688 L630.90379,243.148688 Z" id="XMLID_68_" fill="#494949"></path>
            <path d="M959.183673,131.778426 L959.183673,114.868805 L883.965015,114.868805 L883.965015,114.868805 C890.379009,95.0437318 897.959184,72.303207 900.291545,53.0612245 L882.798834,53.0612245 C871.720117,104.373178 854.810496,149.271137 833.236152,184.25656 L843.731778,202.915452 L851.311953,187.172012 C854.227405,181.924198 856.559767,177.842566 858.309038,174.344023 C863.556851,219.825073 872.886297,256.559767 885.714286,283.381924 C873.469388,304.956268 854.227405,327.113703 828.571429,349.854227 L827.988338,349.854227 L837.900875,366.763848 L838.483965,367.346939 L839.067055,366.763848 C865.889213,341.690962 884.548105,319.533528 894.460641,301.457726 C905.539359,321.282799 924.781341,345.189504 946.355685,367.930029 L946.938776,368.51312 L956.851312,351.020408 L956.851312,350.437318 L956.268222,350.437318 C932.944606,327.696793 914.285714,304.373178 903.790087,284.548105 C923.03207,249.562682 934.693878,198.250729 939.358601,131.778426 L959.183673,131.778426 L959.183673,131.778426 Z M896.793003,263.556851 C885.714286,234.985423 877.55102,195.918367 872.303207,147.521866 C874.052478,142.274052 876.38484,137.026239 878.717201,132.361516 L924.198251,132.361516 C920.699708,187.172012 911.370262,231.48688 896.793003,263.556851 Z" id="XMLID_65_" fill="#494949"></path>
            <path d="M1665.30612,113.702624 L1665.30612,95.6268222 L1521.2828,95.6268222 L1521.2828,49.5626822 L1502.62391,49.5626822 L1502.62391,95.6268222 L1359.76676,95.6268222 L1359.76676,113.702624 L1502.62391,113.702624 L1502.62391,173.760933 L1499.70845,173.760933 L1409.91254,173.760933 L1409.91254,190.087464 C1409.91254,190.087464 1423.90671,222.157434 1453.06122,257.142857 C1464.72303,271.137026 1478.13411,285.714286 1495.62682,300.291545 C1462.97376,320.116618 1422.74052,339.358601 1366.18076,350.437318 L1376.67638,369.09621 C1376.67638,369.09621 1443.73178,355.102041 1510.20408,311.953353 C1518.95044,317.784257 1560.34985,350.437318 1637.31778,369.09621 C1637.31778,369.09621 1637.31778,369.09621 1637.31778,369.09621 L1637.90087,369.09621 L1645.48105,355.102041 C1645.48105,355.102041 1625.65598,349.854227 1595.33528,338.19242 C1574.34402,330.029155 1548.10496,317.784257 1523.03207,300.874636 C1560.34985,273.469388 1593.58601,233.819242 1613.41108,183.090379 L1598.25073,174.344023 L1520.69971,174.344023 L1520.69971,174.344023 L1520.69971,114.285714 L1665.30612,114.285714 L1665.30612,113.702624 Z M1592.41983,190.087464 C1592.41983,190.087464 1573.76093,243.148688 1510.20408,288.629738 C1479.88338,265.306122 1448.3965,231.48688 1428.57143,190.087464 L1592.41983,190.087464 Z" id="XMLID_35_" fill="#494949"></path>
            <path d="M1897.37609,346.355685 C1893.87755,346.355685 1890.37901,346.355685 1886.88047,346.355685 L1886.88047,364.431487 C1893.87755,364.431487 1899.12536,364.431487 1902.62391,364.431487 C1920.69971,364.431487 1930.02915,360.349854 1938.19242,352.769679 C1945.77259,345.189504 1949.27114,334.110787 1948.68805,318.950437 L1948.68805,149.271137 L1997.66764,149.271137 L1997.66764,131.195335 L1948.68805,131.195335 L1948.68805,53.0612245 L1930.02915,53.0612245 L1930.02915,131.195335 L1779.59184,131.195335 L1779.59184,149.271137 L1930.02915,149.271137 L1930.02915,318.950437 C1930.02915,337.609329 1918.95044,346.355685 1897.37609,346.355685 Z" id="XMLID_34_" fill="#494949"></path>
            <path d="M1856.55977,286.297376 L1874.63557,275.801749 C1864.72303,255.976676 1851.89504,229.737609 1836.1516,197.667638 L1819.82507,207.580175 C1830.3207,228.571429 1843.14869,255.393586 1856.55977,286.297376 Z" id="XMLID_33_" fill="#494949"></path>
        </g>
    </g>
</svg>